<?xml version="1.0" encoding="UTF-8"?><svg id="Layer_1" xmlns="http://www.w3.org/2000/svg" width="70" height="70" viewBox="0 0 70 70"><defs><style>.cls-1{fill:#1043ea;}.cls-2{fill:#fffffe;fill-rule:evenodd;}</style></defs><circle class="cls-1" cx="35.9" cy="35.8" r="29.4"/><g id="Layer_1-2"><g id="_214568104"><path id="_214569904" class="cls-2" d="M45.9,53.1h-20.9c-.4,0-.8-.2-1.1-.5-.3-.3-.5-.7-.5-1.1v-26.7c0-.9.7-1.6,1.6-1.6h22.2c.9,0,1.6.7,1.6,1.6v14.3c0,.2-.2.4-.4.4s-.4-.2-.4-.4v-14.3c0-.4-.4-.8-.8-.8h-22.2c-.4,0-.8.4-.8.8v26.7c0,.2,0,.4.2.6s.4.2.6.2h21c.2,0,.4.2.4.4,0,.2-.2.4-.4.4h0Z"/><path id="_214570144" class="cls-2" d="M23.8,48.4h-3.5c-.4,0-.8-.2-1.1-.5-.3-.3-.5-.7-.5-1.1v-26.7c0-.4.2-.8.5-1.1.3-.3.7-.5,1.1-.5h22.2c.9,0,1.6.7,1.6,1.6v3.5c0,.2-.2.4-.4.4s-.4-.2-.4-.4v-3.5c0-.4-.4-.8-.8-.8h-22.2c-.2,0-.4,0-.6.2s-.2.4-.2.6v26.7c0,.2,0,.4.2.6s.4.2.6.2h3.5c.2,0,.4.2.4.4,0,.2-.2.4-.4.4h0Z"/><path id="_214570288" class="cls-2" d="M39.4,40.5c.3,3.3,1,6,2.1,8s2.6,3.2,4.5,3.8c1.9-.6,3.4-1.8,4.5-3.8s1.8-4.6,2.1-8h-.1c-2.4,0-4.8-1-6.4-2.9-1.6,1.9-4,2.9-6.5,2.9h0ZM45.9,53.1s0,0-.1,0c-2.1-.6-3.8-2-5-4.2-1.2-2.1-1.9-5.1-2.2-8.7,0-.1,0-.2.1-.3,0,0,.2-.1.3-.1,2.6.2,5-.9,6.6-2.9,0,0,.2-.1.3-.1s.2,0,.3.1c1.6,2,4.1,3.1,6.6,2.9.1,0,.2,0,.3.1,0,0,.1.2.1.3-.3,3.6-1,6.6-2.2,8.7-1.2,2.2-2.9,3.6-5,4.2,0,0,0,0,0,0h0Z"/><path id="_214568896" class="cls-2" d="M45.3,48h1.1v-2c0-.2.2-.4.4-.4h2v-1.1h-2c-.2,0-.4-.2-.4-.4v-2h-1.1v2c0,.2-.2.4-.4.4h-2v1.1h2c.2,0,.4.2.4.4v2ZM46.8,48.7h-1.9c-.2,0-.4-.2-.4-.4v-2h-2c-.2,0-.4-.2-.4-.4v-1.9c0-.2.2-.4.4-.4h2v-2c0-.2.2-.4.4-.4h1.9c.2,0,.4.2.4.4v2h2c.2,0,.4.2.4.4v1.9c0,.2-.2.4-.4.4h-2v2c0,.2-.1.4-.4.4h0Z"/><path id="_214569520" class="cls-2" d="M28.3,27.7c-.2,0-.4.2-.4.4v3.2c0,.2.2.4.4.4h15.4c.2,0,.4-.2.4-.4v-3.2c0-.2-.2-.4-.4-.4h-15.4ZM43.7,32.4h-15.4c-.6,0-1.1-.5-1.1-1.1v-3.2c0-.6.5-1.1,1.1-1.1h15.4c.6,0,1.1.5,1.1,1.1v3.2c0,.6-.5,1.1-1.1,1.1Z"/><path id="_214569472" class="cls-2" d="M43.8,35.4h-15.5c-.2,0-.4-.2-.4-.4s.2-.4.4-.4h15.5c.2,0,.4.2.4.4,0,.2-.2.4-.4.4Z"/><path id="_214569040" class="cls-2" d="M39,38.3h-10.8c-.2,0-.4-.2-.4-.4s.2-.4.4-.4h10.8c.2,0,.4.2.4.4,0,.2-.2.4-.4.4Z"/><path id="_214569400" class="cls-2" d="M29.3,50.3c-.2,0-.4-.2-.4-.4v-7.9c0-.2.2-.4.4-.4s.4.2.4.4v7.9c0,.2-.2.4-.4.4Z"/><path id="_214569376" class="cls-2" d="M29.2,49c-.5,0-1-.1-1.4-.4-.6-.4-.8-1-.7-1.6,0-.2.2-.4.4-.3s.4.2.3.4c0,.4.1.7.4.9.5.3,1.2.3,1.7,0,.4-.2.5-.5.5-.9s-.4-.9-.9-.9h-.9c-.9,0-1.6-.7-1.6-1.6s.3-1.2.9-1.5c.8-.4,1.8-.4,2.5.1.6.4.8,1,.7,1.6,0,.2-.2.4-.4.3s-.4-.2-.3-.4c0-.4-.1-.7-.4-.9-.5-.3-1.2-.3-1.7,0-.4.2-.5.5-.5.9s.4.9.9.9h.9c.9,0,1.6.7,1.6,1.6s-.3,1.2-.9,1.5c-.3.2-.7.3-1.2.3h0Z"/><path id="_214569448" class="cls-2" d="M37.5,50.3h-4.7c-.2,0-.4-.2-.4-.4s.2-.4.4-.4h4.7c.2,0,.4.2.4.4s-.2.4-.4.4Z"/><path id="_214568944" class="cls-2" d="M37.5,47.5h-4.7c-.2,0-.4-.2-.4-.4s.2-.4.4-.4h4.7c.2,0,.4.2.4.4,0,.2-.2.4-.4.4Z"/><path id="_214568800" class="cls-2" d="M37.5,44.7h-4.7c-.2,0-.4-.2-.4-.4s.2-.4.4-.4h4.7c.2,0,.4.2.4.4s-.2.4-.4.4Z"/><path id="_214569352" class="cls-2" d="M37.5,41.9h-6c-.2,0-.4-.2-.4-.4s.2-.4.4-.4h6c.2,0,.4.2.4.4s-.2.4-.4.4Z"/></g></g></svg>