<?xml version="1.0" encoding="UTF-8"?><svg id="Layer_1" xmlns="http://www.w3.org/2000/svg" width="70" height="70" viewBox="0 0 70 70"><defs><style>.cls-1{fill:#1043ea;}</style></defs><g id="Data_analysis"><path class="cls-1" d="M26.9,42.5h-3.7c-.5,0-.9.4-.9.9v7.5c0,.5.4.9.9.9h3.7c.5,0,.9-.4.9-.9v-7.5c0-.5-.4-.9-.9-.9ZM26,49.9h-1.9v-5.6h1.9v5.6Z"/><path class="cls-1" d="M34.4,38.7h-3.7c-.5,0-.9.4-.9.9v11.2c0,.5.4.9.9.9h3.7c.5,0,.9-.4.9-.9v-11.2c0-.5-.4-.9-.9-.9ZM33.5,49.9h-1.9v-9.3h1.9v9.3Z"/><path class="cls-1" d="M41.9,35h-3.7c-.5,0-.9.4-.9.9v14.9c0,.5.4.9.9.9h3.7c.5,0,.9-.4.9-.9v-14.9c0-.5-.4-.9-.9-.9ZM40.9,49.9h-1.9v-13.1h1.9v13.1Z"/><path class="cls-1" d="M45.6,51.8h3.7c.5,0,.9-.4.9-.9v-16.8c0-.5-.4-.9-.9-.9h-3.7c-.5,0-.9.4-.9.9v16.8c0,.5.4.9.9.9ZM46.5,35h1.9v14.9h-1.9v-14.9Z"/><path class="cls-1" d="M16.7,7c-4.6,0-8.4,3.8-8.4,8.4s3.8,8.4,8.4,8.4,8.4-3.8,8.4-8.4c0-4.6-3.8-8.4-8.4-8.4ZM16.7,21.9c-3.6,0-6.5-2.9-6.5-6.5s2.9-6.5,6.5-6.5,6.5,2.9,6.5,6.5c0,3.6-2.9,6.5-6.5,6.5Z"/><path class="cls-1" d="M17.6,21v-1.1c1.5-.5,2.2-2.1,1.7-3.6-.4-1.1-1.5-1.9-2.6-1.9-.5,0-.9-.4-.9-.9s.4-.9.9-.9.9.4.9.9h1.9c0-1.2-.8-2.2-1.9-2.6v-1.1h-1.9v1.1c-1.5.5-2.2,2.1-1.7,3.6.4,1.1,1.5,1.9,2.6,1.9.5,0,.9.4.9.9s-.4.9-.9.9-.9-.4-.9-.9h-1.9c0,1.2.8,2.2,1.9,2.6v1.1h1.9Z"/><path class="cls-1" d="M58.7,21h-.9v-1.3c1.7-.7,2.8-2.4,2.8-4.3v-3.7c0-2.6-2.1-4.7-4.7-4.7h-1.9c-2.6,0-4.7,2.1-4.7,4.7v3.7c0,1.9,1.1,3.5,2.8,4.3v1.3h-.9c-2.7,0-5.1,2-5.5,4.7h-2.9v-5.6h.9c.5,0,.9-.4.9-.9v-2.8h.9c.4,0,.7-.3.9-.6.1-.4,0-.8-.3-1l-9.3-7.5c-.3-.3-.8-.3-1.2,0l-9.3,7.5c-.3.2-.4.7-.3,1,.1.4.5.6.9.6h.9v2.8c0,.5.4.9.9.9h.9v5.6h-12.1c-1.5,0-2.8,1.3-2.8,2.8v25.2h-.9c-.5,0-.9.4-.9.9v3.7c0,2.6,2.1,4.7,4.7,4.7h37.3c2.6,0,4.7-2.1,4.7-4.7v-3.7c0-.5-.4-.9-.9-.9h-.9v-22.4h5.6c.5,0,.9-.4.9-.9v-3.7c0-3.1-2.5-5.6-5.6-5.6ZM54,8.9h1.9c1.2,0,2.2.8,2.6,1.9l-1.2-.8c-.2-.2-.5-.2-.8-.1l-5.3,1.5c.2-1.4,1.4-2.5,2.8-2.5ZM51.2,15.4v-2.1l5.4-1.5,2,1.4v2.3c0,1.5-1.3,2.8-2.8,2.8h-1.9c-1.5,0-2.8-1.3-2.8-2.8ZM55.9,20.1v.9c0,.5-.4.9-.9.9s-.9-.4-.9-.9v-.9h1.9ZM51.2,22.9h1.7c.3.3.7.6,1.1.8v2h-6.4c.4-1.6,1.9-2.8,3.6-2.8ZM44.7,27.5h10.3c.5,0,.9.4.9.9v25.2h-1.9v-23.3c0-.5-.4-.9-.9-.9h-8.4v-1.9ZM42.8,18.2h-13.1v-1.9h13.1v1.9ZM40.9,20.1v5.6h-1.9v-5.6h1.9ZM37.2,20.1v5.6h-1.9v-5.6h1.9ZM33.5,20.1v5.6h-1.9v-5.6h1.9ZM29.6,14.5l6.7-5.3,6.7,5.3h-13.3ZM29.7,27.5h13.1v1.9h-13.1v-1.9ZM52.1,31.3v22.4h-31.7v-22.4h31.7ZM41.9,55.5v.9c0,.5-.4.9-.9.9h-9.3c-.5,0-.9-.4-.9-.9v-.9h11.2ZM16.7,28.5c0-.5.4-.9.9-.9h10.3v1.9h-8.4c-.5,0-.9.4-.9.9v23.3h-1.9v-25.2ZM57.7,58.3c0,1.5-1.3,2.8-2.8,2.8H17.6c-1.5,0-2.8-1.3-2.8-2.8v-2.8h14v.9c0,1.5,1.3,2.8,2.8,2.8h9.3c1.5,0,2.8-1.3,2.8-2.8v-.9h14v2.8ZM62.4,29.4h-4.7v-.9c0-1.2-.8-2.2-1.9-2.6v-2.2c.4-.2.8-.4,1.1-.8h1.7c2.1,0,3.7,1.7,3.7,3.7v2.8Z"/></g></svg>