<?xml version="1.0" encoding="UTF-8"?><svg id="Layer_1" xmlns="http://www.w3.org/2000/svg" width="70" height="70" viewBox="0 0 70 70"><defs><style>.cls-1{fill:#1043ea;fill-rule:evenodd;}</style></defs><path id="_295880688" class="cls-1" d="M27.9,35c.1,0,.3,0,.4.2,1.1,1,2.4,1.7,3.8,2.2.2,0,.4.3.4.5v2.3c0,.2.2.4.4.4h4.3c.2,0,.4-.2.4-.4v-2.3c0-.2.2-.5.4-.5,1.4-.4,2.7-1.2,3.8-2.2.2-.2.4-.2.7,0l2,1.1c0,0,.2,0,.3,0,0,0,.2,0,.2-.2l2.2-3.7c.1-.2,0-.4-.1-.5l-2-1.1c-.2-.1-.3-.4-.3-.6.2-.7.2-1.5.2-2.2s0-1.5-.2-2.2c0-.2,0-.5.3-.6l2-1.1c0,0,.1-.1.2-.2,0,0,0-.2,0-.3l-2.2-3.7c-.1-.2-.3-.2-.5-.1l-2,1.1c-.2.1-.5,0-.7,0-1.1-1-2.4-1.7-3.8-2.2-.2,0-.4-.3-.4-.5v-2.3c0-.2-.2-.4-.4-.4h-4.3c-.2,0-.4.2-.4.4v2.3c0,.2-.2.5-.4.5-1.4.4-2.7,1.2-3.8,2.2-.2.2-.4.2-.7,0l-2-1.1c0,0-.2,0-.3,0,0,0-.2,0-.2.2l-2.2,3.7c0,0,0,.2,0,.3,0,0,0,.2.2.2l2,1.1c.2.1.3.4.3.6-.2.7-.2,1.5-.2,2.2s0,1.5.2,2.2c0,.2,0,.5-.3.6l-2,1.1c-.2.1-.2.3-.1.5l2.2,3.7c0,0,.1.1.2.2,0,0,.2,0,.3,0l2-1.1c0,0,.2,0,.3,0h0ZM37.1,41.6h-4.3c-.8,0-1.5-.7-1.5-1.5v-1.9c-1.3-.4-2.5-1.1-3.5-2l-1.6.9c-.3.2-.7.2-1.1.2-.4-.1-.7-.3-.9-.7l-2.2-3.7c-.4-.7-.2-1.6.6-2l1.6-.9c-.1-.7-.2-1.3-.2-2s0-1.4.2-2l-1.6-.9c-.3-.2-.6-.5-.7-.9s0-.8.2-1.1l2.2-3.7c.4-.7,1.3-1,2-.6l1.6.9c1-.9,2.2-1.6,3.5-2v-1.9c0-.8.7-1.5,1.5-1.5h4.3c.8,0,1.5.7,1.5,1.5v1.8c1.3.4,2.5,1.1,3.5,2l1.6-.9c.7-.4,1.6-.2,2,.6l2.2,3.7c.2.3.3.7.2,1.1s-.3.7-.7.9l-1.6.9c.1.7.2,1.3.2,2s0,1.3-.2,2l1.6.9c.7.4,1,1.3.6,2l-2.2,3.7c-.2.3-.5.6-.9.7s-.8,0-1.1-.2l-1.6-.9c-1,.9-2.2,1.6-3.5,2v1.9c0,.8-.7,1.5-1.6,1.5Z"/><path id="_295876608" class="cls-1" d="M35,22.2c-3.1,0-5.7,2.5-5.7,5.7s2.5,5.7,5.7,5.7,5.7-2.5,5.7-5.7-2.6-5.7-5.7-5.7h0ZM35,34.7c-3.8,0-6.8-3-6.8-6.8s3-6.8,6.8-6.8,6.8,3,6.8,6.8c0,3.7-3.1,6.8-6.8,6.8h0Z"/><path id="_295876392" class="cls-1" d="M55.6,45.1c-.9,0-1.7-.3-2.2-.9-.2-.2-.2-.6,0-.8s.6-.2.8,0c.3.3.8.5,1.3.5.8,0,1.5-.5,1.5-1s-.6-1-1.3-1c-1.4,0-2.4-1-2.4-2.1s1.2-2.1,2.6-2.1,1.7.3,2.2.9c.2.2.2.6,0,.8-.2.2-.6.2-.8,0-.3-.3-.8-.5-1.3-.5-.8,0-1.5.5-1.5,1s.6,1,1.3,1c1.4,0,2.4,1,2.4,2.1,0,1.2-1.2,2.1-2.6,2.1Z"/><path id="_295874880" class="cls-1" d="M55.7,46.3c-.3,0-.6-.3-.6-.6v-8.8c0-.3.3-.6.6-.6s.6.3.6.6v8.8c0,.3-.3.6-.6.6Z"/><path id="_295874112" class="cls-1" d="M55.7,35.8c-3,0-5.5,2.5-5.5,5.5s2.5,5.5,5.5,5.5,5.5-2.5,5.5-5.5-2.5-5.5-5.5-5.5ZM55.7,48c-3.7,0-6.7-3-6.7-6.7s3-6.7,6.7-6.7,6.7,3,6.7,6.7-3,6.7-6.7,6.7Z"/><path id="_295874712" class="cls-1" d="M55.7,50.3c-1.8,0-3.6,0-4.4-.2-2.7-.4-4.4-1.7-5.3-4-2.9-7.3,2.6-12.2,5.2-14,.3-.2.6-.1.8.1.2.3.1.6-.1.8-2.3,1.6-7.4,6.1-4.8,12.6.8,1.9,2.2,2.9,4.4,3.3,1.5.2,7,.2,8.4,0,2.3-.3,3.7-1.4,4.4-3.3,2.6-6.5-2.4-11-4.8-12.6-.3-.2-.3-.5-.1-.8s.5-.3.8-.1c2.5,1.8,8.1,6.7,5.2,14-.9,2.3-2.7,3.6-5.3,4-.8.1-2.6.2-4.4.2h0Z"/><path id="_295876080" class="cls-1" d="M59.4,30.4s0,0-.1,0c-.3,0-.5-.4-.4-.7,0-.2,0-.4.1-.6.1-1,.7-2,1.2-2.6-1.2-.2-3.4-.5-5.2.2-1.3.5-2.3.6-3.1.5.3.6.7,1.3.7,2,0,.2,0,.4.1.6,0,.3-.1.6-.4.7s-.6-.1-.7-.4c0-.2,0-.4-.1-.7-.1-1-1.1-2.3-1.5-2.7-.2-.2-.2-.6,0-.8.2-.2.5-.2.8,0,0,0,1.2.8,3.7,0,3-1.1,6.6,0,6.8,0,.2,0,.3.2.4.4,0,.2,0,.4-.1.5,0,0-1.3,1.5-1.5,2.7,0,.2,0,.4-.1.7,0,.3-.3.4-.5.4h0Z"/><path id="_295870536" class="cls-1" d="M51.7,30.4c-.5,0-.8.4-.8.8s.4.8.8.8h8.1c.5,0,.8-.4.8-.8s-.4-.8-.8-.8h-8.1ZM59.8,33.3h-8.1c-1.1,0-2-.9-2-2s.9-2,2-2h8.1c1.1,0,2,.9,2,2s-.9,2-2,2Z"/><path id="_295869984" class="cls-1" d="M61,31.1c-.2,0-.4-.1-.5-.4-.1-.3,0-.6.3-.7.7-.3,1.4-.3,2.1-.1,1.3.3,2.3-1,2.3-1,.2-.2.5-.3.8-.1.2.2.3.5.1.8,0,0-1.4,1.9-3.4,1.4-.5-.1-1,0-1.5.1,0,0-.1,0-.2,0h0Z"/><path id="_295868808" class="cls-1" d="M65.6,34.1c-.1,0-.2,0-.3,0-1.7-1.1-3.3-1.4-4.3-1.5-.3,0-.5-.3-.5-.6s.3-.5.6-.5c1.1.1,2.9.5,4.8,1.7.3.2.3.5.2.8,0,.2-.3.3-.5.3Z"/><path id="_295868376" class="cls-1" d="M13.6,43.7c-1.1,0-2.1-.4-2.6-1.1-.2-.2-.2-.6,0-.8.2-.2.6-.2.8,0,.4.4,1.1.7,1.8.7,1.1,0,2.1-.7,2.1-1.5s-.8-1.4-1.9-1.5c-1.7-.1-3-1.2-3-2.6s1.4-2.6,3.2-2.6,2.1.4,2.6,1.1c.2.2.2.6,0,.8-.2.2-.6.2-.8,0-.4-.4-1.1-.7-1.8-.7-1.1,0-2.1.7-2.1,1.5s.8,1.4,1.9,1.5c1.7.1,2.9,1.2,2.9,2.6s-1.4,2.6-3.2,2.6h0Z"/><path id="_295867008" class="cls-1" d="M13.8,45.3c-.3,0-.6-.3-.6-.6v-11.3c0-.3.3-.6.6-.6s.6.3.6.6v11.3c0,.3-.2.6-.6.6Z"/><path id="_295866696" class="cls-1" d="M13.8,31.7c-4.1,0-7.4,3.3-7.4,7.4s3.3,7.4,7.4,7.4,7.4-3.3,7.4-7.4c0-4.1-3.3-7.4-7.4-7.4h0ZM13.8,47.6c-4.7,0-8.5-3.8-8.5-8.5s3.8-8.5,8.5-8.5,8.5,3.8,8.5,8.5c0,4.7-3.8,8.5-8.5,8.5h0Z"/></svg>