<svg id="Layer_1" data-name="Layer 1" xmlns="http://www.w3.org/2000/svg" viewBox="0 0 62.3 62.3"><defs><style>.cls-1{fill:#0a5078;}.cls-2{fill:#00a0c8;}.cls-3{fill:#00325a;}.cls-4{fill:#0082aa;}.cls-5{fill:#c80a50;}.cls-6{fill:#a00028;}</style></defs><g id="Icons"><path class="cls-1" d="M93.9,62.7H76.1a2.2,2.2,0,0,1-2.2-2.2V49.4a2.2,2.2,0,0,1,2.2-2.3H93.9a2.2,2.2,0,0,1,2.2,2.3V60.5A2.2,2.2,0,0,1,93.9,62.7Z" transform="translate(-73.9 -4.8)"/><path class="cls-2" d="M92.8,60.5H77.2a1.1,1.1,0,0,1-1.1-1.1V50.5a1.1,1.1,0,0,1,1.1-1.1H92.8a1.1,1.1,0,0,1,1.1,1.1v8.9A1.1,1.1,0,0,1,92.8,60.5Z" transform="translate(-73.9 -4.8)"/><path class="cls-1" d="M82.8,62.7h4.4v4.5H82.8Z" transform="translate(-73.9 -4.8)"/><path class="cls-1" d="M89.5,64.9H80.6a2.3,2.3,0,0,0-2.3,2.3H91.7A2.2,2.2,0,0,0,89.5,64.9Z" transform="translate(-73.9 -4.8)"/><path class="cls-3" d="M82.8,62.7h4.4v1.1H82.8Z" transform="translate(-73.9 -4.8)"/><path class="cls-2" d="M129.5,22.6h-3a12.3,12.3,0,0,0,.8-4.4A13.4,13.4,0,0,0,113.9,4.8a13.3,13.3,0,0,0-13.2,12,9.1,9.1,0,0,0-6.8-3.1A8.9,8.9,0,0,0,85,22.6H80.6a6.7,6.7,0,1,0,0,13.4h48.9a6.7,6.7,0,0,0,0-13.4Z" transform="translate(-73.9 -4.8)"/><path class="cls-4" d="M125.1,27.1a4.5,4.5,0,1,0-8.9,0,8.9,8.9,0,0,0-17.8,0,4.5,4.5,0,1,0,0,8.9h26.7a4.5,4.5,0,0,0,0-8.9Z" transform="translate(-73.9 -4.8)"/><path class="cls-2" d="M108.4,62.7h-6.7a1.1,1.1,0,0,1-1.1-1.1V48.2a1.1,1.1,0,0,1,1.1-1.1h6.7a1.1,1.1,0,0,1,1.1,1.1V61.6A1.1,1.1,0,0,1,108.4,62.7Z" transform="translate(-73.9 -4.8)"/><path class="cls-1" d="M134,64.9H116.2a2.2,2.2,0,0,1-2.3-2.2V51.6a2.2,2.2,0,0,1,2.3-2.2H134a2.2,2.2,0,0,1,2.2,2.2V62.7A2.2,2.2,0,0,1,134,64.9Z" transform="translate(-73.9 -4.8)"/><path class="cls-2" d="M132.9,62.7H117.3a1.1,1.1,0,0,1-1.1-1.1V52.7a1.1,1.1,0,0,1,1.1-1.1h15.6a1.1,1.1,0,0,1,1.1,1.1v8.9A1.1,1.1,0,0,1,132.9,62.7Z" transform="translate(-73.9 -4.8)"/><path class="cls-2" d="M135.1,67.2h-20a1.1,1.1,0,0,1-1.2-1.1,1.2,1.2,0,0,1,1.2-1.2h20a1.1,1.1,0,0,1,1.1,1.2A1.1,1.1,0,0,1,135.1,67.2Z" transform="translate(-73.9 -4.8)"/><path class="cls-1" d="M100.6,49.4h8.9V60.5h-8.9Z" transform="translate(-73.9 -4.8)"/><path class="cls-4" d="M127.3,67.2h-4.5l-2.2-2.3h8.9Z" transform="translate(-73.9 -4.8)"/><path class="cls-5" d="M86.1,47.1H83.9V44.9a3.3,3.3,0,0,1,3.3-3.3h4.5a1.1,1.1,0,0,0,1.1-1.1V36H95v4.5a3.3,3.3,0,0,1-3.3,3.3H87.2a1.1,1.1,0,0,0-1.1,1.1Z" transform="translate(-73.9 -4.8)"/><path class="cls-5" d="M126.2,49.4H124V44.9a1.1,1.1,0,0,0-1.2-1.1h-4.4a3.3,3.3,0,0,1-3.3-3.3V36h2.2v4.5a1.1,1.1,0,0,0,1.1,1.1h4.4a3.4,3.4,0,0,1,3.4,3.3Z" transform="translate(-73.9 -4.8)"/><path class="cls-5" d="M103.9,36h2.3V47.1h-2.3Z" transform="translate(-73.9 -4.8)"/><path class="cls-6" d="M92.8,36H95v1.1H92.8Z" transform="translate(-73.9 -4.8)"/><path class="cls-6" d="M103.9,36h2.3v1.1h-2.3Z" transform="translate(-73.9 -4.8)"/><path class="cls-6" d="M115.1,36h2.2v1.1h-2.2Z" transform="translate(-73.9 -4.8)"/></g></svg>