<?xml version="1.0" encoding="UTF-8"?><svg id="Layer_1" xmlns="http://www.w3.org/2000/svg" width="70" height="70" viewBox="0 0 70 70"><defs><style>.cls-1{fill:#1043ea;}</style></defs><path class="cls-1" d="M39.3,54.5h-1.7v-8.5c0-.5-.4-.9-.9-.9s-.9.4-.9.9v8.5H13.4v-17.3h7.2c.5,0,.9-.4.9-.9s-.4-.9-.9-.9h-8c-.5,0-.9.4-.9.9v18.1h-1.7c-.5,0-.9.4-.9.9v1.7c0,2.4,1.9,4.3,4.3,4.3h22.4c2.4,0,4.3-1.9,4.3-4.3v-1.7c0-.5-.4-.9-.9-.9ZM38.5,57.1c0,1.4-1.2,2.6-2.6,2.6h-1.7v-.9c0-.5-.4-.9-.9-.9s-.9.4-.9.9v.9h-15.5v-.9c0-.5-.4-.9-.9-.9s-.9.4-.9.9v.9h-1.7c-1.4,0-2.6-1.2-2.6-2.6v-.9h27.6v.9Z"/><path class="cls-1" d="M54,14.8h1.7c.5,0,.9-.4.9-.9s-.4-.9-.9-.9h-1.7c-1.4,0-2.6,1.2-2.6,2.6v.9h-.9c-.5,0-.9.4-.9.9s.4.9.9.9h.9v2.6c0,.5.4.9.9.9s.9-.4.9-.9v-2.6h.9c.5,0,.9-.4.9-.9s-.4-.9-.9-.9h-.9v-.9c0-.5.4-.9.9-.9Z"/><path class="cls-1" d="M58.3,9.6h-10.4c-1.4,0-2.6,1.2-2.6,2.6v1.7c0,.5.4.9.9.9s.9-.4.9-.9v-1.7c0-.5.4-.9.9-.9h10.4c.5,0,.9.4.9.9v10.4c0,.5-.4.9-.9.9h-10.4c-.5,0-.9-.4-.9-.9v-5.2c0-.5-.4-.9-.9-.9s-.9.4-.9.9v5.2c0,1.4,1.2,2.6,2.6,2.6h10.4c1.4,0,2.6-1.2,2.6-2.6v-10.4c0-1.4-1.2-2.6-2.6-2.6Z"/><path class="cls-1" d="M49.7,44.1c0,1.9,1.5,3.5,3.5,3.5s3.5-1.5,3.5-3.5-1.5-3.5-3.5-3.5-3.5,1.5-3.5,3.5ZM54.8,44.1c0,1-.8,1.7-1.7,1.7s-1.7-.8-1.7-1.7.8-1.7,1.7-1.7,1.7.8,1.7,1.7Z"/><path class="cls-1" d="M58.3,36.3h-10.4c-1.4,0-2.6,1.2-2.6,2.6v10.4c0,1.4,1.2,2.6,2.6,2.6h10.4c1.4,0,2.6-1.2,2.6-2.6v-1.7c0-.5-.4-.9-.9-.9s-.9.4-.9.9v1.7c0,.5-.4.9-.9.9h-10.4c-.5,0-.9-.4-.9-.9v-10.4c0-.5.4-.9.9-.9h10.4c.5,0,.9.4.9.9v5.2c0,.5.4.9.9.9s.9-.4.9-.9v-5.2c0-1.4-1.2-2.6-2.6-2.6Z"/><path class="cls-1" d="M28.5,19.8c.1,0,.3.1.5.1.1,0,.3,0,.4,0l5.2-2.6c.4-.2.6-.7.4-1.2,0-.2-.2-.3-.4-.4l-5.2-2.6c-.4-.2-.9,0-1.2.4,0,.1,0,.3,0,.4v5.2c0,.3.2.6.4.7ZM29.8,15.3l2.4,1.2-2.4,1.2v-2.4Z"/><path class="cls-1" d="M30.7,24.3c4.3,0,7.8-3.5,7.8-7.8s-3.5-7.8-7.8-7.8-7.8,3.5-7.8,7.8,3.5,7.8,7.8,7.8ZM30.7,10.5c3.3,0,6,2.7,6,6s-2.7,6-6,6-6-2.7-6-6,2.7-6,6-6Z"/><path class="cls-1" d="M39.3,27.7c.3,0,.5-.1.7-.3l2.6-3.5c.3-.4.2-.9-.2-1.2-.4-.3-.9-.2-1.2.2l-2.6,3.5c-.3.4-.2.9.2,1.2.1.1.3.2.5.2Z"/><path class="cls-1" d="M41.2,30.8c.2.2.4.3.7.3s.4,0,.5-.2l3.5-2.6c.4-.3.5-.8.2-1.2-.3-.4-.8-.5-1.2-.2l-3.5,2.6c-.4.3-.5.8-.2,1.2h0Z"/><path class="cls-1" d="M49.7,32.7c0-.5-.5-.8-1-.7,0,0,0,0,0,0l-4.3.9c-.5,0-.8.5-.8.9,0,.5.5.8.9.8h.2l4.3-.9c.5,0,.8-.5.7-1,0,0,0,0,0,0Z"/><path class="cls-1" d="M10,32.9h10.4c.5,0,.9-.4.9-.9v-13.8c0-.5-.4-.9-.9-.9h-10.4c-.5,0-.9.4-.9.9v13.8c0,.5.4.9.9.9ZM10.8,19.1h8.6v12.1h-8.6v-12.1Z"/><path class="cls-1" d="M16.9,20.8h-1.7c-.5,0-.9.4-.9.9s.4.9.9.9h1.7c.5,0,.9-.4.9-.9s-.4-.9-.9-.9Z"/><path class="cls-1" d="M16.9,24.3h-3.5c-.5,0-.9.4-.9.9s.4.9.9.9h3.5c.5,0,.9-.4.9-.9s-.4-.9-.9-.9Z"/><path class="cls-1" d="M16.9,27.7h-3.5c-.5,0-.9.4-.9.9s.4.9.9.9h3.5c.5,0,.9-.4.9-.9s-.4-.9-.9-.9Z"/><path class="cls-1" d="M38.6,32.6c-.2-.4-.8-.6-1.2-.3-.4.2-.6.8-.3,1.2l3.8,6.6-13.8,5.2h-.1l-2.2,1.3-1.5.9c-.4.2-.9.3-1.3.2-.4-.1-.8-.4-1-.8l-1.7-3c-.4-.8-.1-1.8.6-2.3l3-1.7,2.2,3.7c.2.3.4.4.8.4.5,0,.9-.4.9-.9,0-.2,0-.3-.1-.4l-2.2-3.8,10.8-8.9.4.6c.2.4.8.6,1.2.3.4-.2.6-.8.3-1.2l-.9-1.5c-.1-.2-.3-.4-.6-.4-.3,0-.5,0-.7.2l-12.1,10-3.7,2.1c-1.4.8-2,2.4-1.6,3.9l-.9.5c-1.2.7-1.7,2.3-1,3.5.3.6.9,1,1.6,1.2.2,0,.4,0,.7,0,.5,0,.9-.1,1.3-.3l.9-.5c.4.4.9.7,1.5.9.3,0,.6.1.9.1.6,0,1.2-.2,1.7-.5l.8-.4,1.7,3c.7,1.2,2.3,1.7,3.5.9,1.2-.7,1.7-2.3,1-3.5h0s-1.6-2.7-1.6-2.7l12.9-4.9c.2,0,.4-.3.5-.5,0-.2,0-.5,0-.7l-4.3-7.5ZM18.2,47.4c-.2.1-.4.1-.7,0-.2,0-.4-.2-.5-.4-.1-.2-.1-.4,0-.7,0-.2.2-.4.4-.5l.8-.4.9,1.5-.8.4ZM29.5,49.8c.1.2.1.4,0,.7,0,.2-.2.4-.4.5-.4.2-.9,0-1.2-.3l-1.7-3,1.4-.8h0l1.7,3Z"/></svg>