<?xml version="1.0" encoding="UTF-8"?><svg id="Layer_1" xmlns="http://www.w3.org/2000/svg" width="70" height="70" viewBox="0 0 70 70"><defs><style>.cls-1{fill:#1043e9;}.cls-2{fill:#13e8b1;}</style></defs><path class="cls-1" d="M51,7.7h-30.3c-1.8,0-3.3,1.5-3.3,3.3v49.2c0,1.8,1.5,3.3,3.3,3.3h30.3c1.8,0,3.3-1.5,3.3-3.3V10.9c0-1.8-1.5-3.3-3.3-3.3ZM53.1,60.1c0,1.2-.9,2.1-2.1,2.1h-30.3c-1.2,0-2.1-.9-2.1-2.1V10.9c0-1.2.9-2.1,2.1-2.1h30.3c1.2,0,2.1.9,2.1,2.1v49.2h0Z"/><path class="cls-1" d="M20.9,56h29.9V13.1h-29.9v43ZM22,14.2h27.6v40.7h-27.6V14.2Z"/><path class="cls-1" d="M38.2,52.6h1.5v1.2h-1.5v-1.2Z"/><path class="cls-1" d="M40.8,52.6h5.3v1.2h-5.3v-1.2Z"/><path class="cls-1" d="M27.2,15.3h-4.1v3.7h1.2v-2.6h2.9v-1.2Z"/><path class="cls-1" d="M35.8,57.1c-1.1,0-2,.9-2,2s.9,2,2,2,2-.9,2-2-.9-2-2-2ZM35.8,60c-.5,0-.8-.4-.8-.8s.4-.8.8-.8.8.4.8.8-.4.8-.8.8Z"/><path class="cls-1" d="M33.8,10.4h4.2v1.2h-4.2v-1.2Z"/><path class="cls-1" d="M42.1,32.7c-.4-3-3-5.3-6.1-5.3s-5.7,2.3-6.1,5.3l-1.5,10.8h-2.7v4.7h20.4v-4.7h-2.7l-1.5-10.8ZM31.1,32.9c.3-2.5,2.5-4.3,4.9-4.3s4.6,1.8,4.9,4.3l1.5,10.7h-12.8l1.5-10.7ZM45.1,44.7v2.4h-18.1v-2.4h18.1Z"/><path class="cls-2" d="M37.7,33.3h-3.5v1.9h-1.9v3.5h1.9v1.9h3.5v-1.9h1.9v-3.5h-1.9v-1.9ZM38.5,36.3v1.2h-1.9v1.9h-1.2v-1.9h-1.9v-1.2h1.9v-1.9h1.2v1.9h1.9Z"/><path class="cls-2" d="M35.3,20.3h1.2v1.2h-1.2v-1.2Z"/><path class="cls-2" d="M35.3,25h1.2v1.2h-1.2v-1.2Z"/><path class="cls-2" d="M35.3,22.6h1.2v1.2h-1.2v-1.2Z"/><path class="cls-2" d="M26.3,22.7l.6,1-1,.6-.6-1,1-.6Z"/><path class="cls-2" d="M29.2,27.7l-1,.6-.6-1,1-.6.6,1Z"/><path class="cls-2" d="M28,25.7l-1,.6-.6-1,1-.6.6,1Z"/><path class="cls-2" d="M43.1,26.7l1,.6-.6,1-1-.6.6-1Z"/><path class="cls-2" d="M45.8,24.3l-1-.6.6-1,1,.6-.6,1Z"/><path class="cls-2" d="M44.2,24.7l1,.6-.6,1-1-.6.6-1Z"/><path class="cls-1" d="M56,30.8h1.2v17.7h-1.2v-17.7Z"/><path class="cls-1" d="M56,25.9h1.2v3.2h-1.2v-3.2Z"/><path class="cls-1" d="M58.9,42.2h1.2v3.4h-1.2v-3.4Z"/><path class="cls-1" d="M58.9,28.7h1.2v11.4h-1.2v-11.4Z"/><path class="cls-1" d="M61.9,35.2h1.2v8.3h-1.2v-8.3Z"/><path class="cls-1" d="M61.9,30.8h1.2v2.3h-1.2v-2.3Z"/><path class="cls-1" d="M14.5,30.8h1.2v17.7h-1.2v-17.7Z"/><path class="cls-1" d="M14.5,25.9h1.2v3.2h-1.2v-3.2Z"/><path class="cls-1" d="M11.6,42.2h1.2v3.4h-1.2v-3.4Z"/><path class="cls-1" d="M11.6,28.7h1.2v11.4h-1.2v-11.4Z"/><path class="cls-1" d="M8.6,35.2h1.2v8.3h-1.2v-8.3Z"/><path class="cls-1" d="M8.6,30.8h1.2v2.3h-1.2v-2.3Z"/></svg>