<?xml version="1.0" encoding="UTF-8"?><svg id="Layer_1" xmlns="http://www.w3.org/2000/svg" width="70" height="70" viewBox="0 0 70 70"><defs><style>.cls-1{fill:#003dff;}</style></defs><path class="cls-1" d="M26.2,22.5c3.5,0,6.3-2.8,6.3-6.3s-2.8-6.3-6.3-6.3-6.3,2.8-6.3,6.3,2.8,6.3,6.3,6.3ZM26.2,11.8c2.4,0,4.4,2,4.4,4.4s-2,4.4-4.4,4.4-4.4-2-4.4-4.4,2-4.4,4.4-4.4ZM27,17.7s0,0,0-.1c0,0,0-.3-.9-.5-1.9-.3-2.3-1.5-2.3-2.1,0-1,.6-1.8,1.5-2.2,0-.5.4-.9.9-.9s.9.4.9.9c.7.2,1.2.7,1.5,1.4.2.5,0,1-.5,1.2-.5.2-1,0-1.2-.5-.2-.4-.7-.5-.9-.4,0,0-.4.1-.4.4,0,.2.5.3.8.4,1.9.3,2.4,1.3,2.5,2.1,0,.6,0,1.1-.5,1.5-.3.3-.7.6-1.2.7,0,.5-.4.9-.9.9s-.9-.4-.9-.9c-.8-.3-1.5-.9-1.7-1.8-.1-.5.2-1,.7-1.1.5-.1,1,.2,1.1.7.1.5.8.5.9.5.3,0,.6-.1.7-.2h0ZM28.5,36.8h-4.5c-.5,0-.9.4-.9.9v14.5c0,.5.4.9.9.9h4.5c.5,0,.9-.4.9-.9v-14.5c0-.5-.4-.9-.9-.9ZM27.5,51.2h-2.7v-12.6h2.7v12.6ZM20,42.4h-4.5c-.5,0-.9.4-.9.9v8.9c0,.5.4.9.9.9h4.5c.5,0,.9-.4.9-.9v-8.9c0-.5-.4-.9-.9-.9ZM19.1,51.2h-2.7v-7h2.7v7ZM34.4,33.7l6.2-6.3h-.2c-.5,0-1-.3-1-.8s.3-1,.8-1l2.7-.2c.3,0,.6,0,.7.3s.3.5.3.8l-.3,2.7c0,.5-.5.8-.9.8s0,0-.1,0c-.5,0-.9-.5-.8-1h0c0,0-6.5,6.5-6.5,6.5-.2.2-.6.3-.9.2l-8-2.6-8,6.3c-.2.1-.4.2-.6.2s-.5-.1-.7-.4c-.3-.4-.2-1,.2-1.3l8.4-6.6c.2-.2.6-.2.9-.2l7.9,2.6ZM14.6,29c0-.5.4-.9.9-.9h1.6c.5,0,.9.4.9.9s-.4.9-.9.9h-1.6c-.5,0-.9-.4-.9-.9ZM19.5,29c0-.5.4-.9.9-.9h12.3c.5,0,.9.4.9.9s-.4.9-.9.9h-12.3c-.5,0-.9-.4-.9-.9ZM14.6,24.6c0-.5.4-.9.9-.9h1.6c.5,0,.9.4.9.9s-.4.9-.9.9h-1.6c-.5,0-.9-.4-.9-.9ZM19.5,24.6c0-.5.4-.9.9-.9h12.3c.5,0,.9.4.9.9s-.4.9-.9.9h-12.3c-.5,0-.9-.4-.9-.9ZM64.5,47.6l-1.8-.7c-.3-1-.7-1.9-1.2-2.8l.8-1.8c.2-.4,0-.8-.2-1l-2.6-2.6c-.3-.3-.7-.3-1-.2l-1.8.8c-.9-.5-1.8-.9-2.8-1.2l-.7-1.8c-.1-.4-.5-.6-.9-.6h-2.4V14.7c0-.5-.2-1-.6-1.3l-5.5-5.5c-.4-.4-.8-.6-1.3-.6H12.8c-1,0-1.9.9-1.9,1.9v46.3c0,1,.9,1.9,1.9,1.9h26.3l-.4.8c-.2.4,0,.8.2,1l2.6,2.6c.3.3.7.3,1,.2l1.8-.8c.9.5,1.8.9,2.8,1.2l.7,1.8c.1.4.5.6.9.6h3.7c.4,0,.7-.2.9-.6l.7-1.8c1-.3,1.9-.7,2.8-1.2l1.8.8c.4.2.8,0,1-.2l2.6-2.6c.3-.3.3-.7.2-1l-.8-1.8c.5-.9.9-1.8,1.2-2.8l1.8-.7c.4-.1.6-.5.6-.9v-3.7c0-.4-.2-.7-.6-.9ZM46.8,13.4h-2.9v-2.9l2.9,2.9ZM12.7,55.6V9.3s0,0,0,0h29.3v4.6c0,.8.6,1.4,1.4,1.4h4.6v20.7c-.1,0-.2.2-.3.4l-.7,1.8c-.3,0-.6.2-.9.3v-6.7c0-.5-.4-.9-.9-.9h-4.5c-.5,0-.9.4-.9.9v8.6l-.9.9c-.3.3-.3.7-.2,1l.8,1.8c-.5.9-.9,1.8-1.2,2.8l-.6.2v-7.5c0-.5-.4-.9-.9-.9h-4.5c-.5,0-.9.4-.9.9v12.6c0,.5.4.9.9.9h4.4l1.7.6c.2.6.4,1.3.7,1.9H12.8s0,0,0,0h0ZM44.4,39.3s0,0,0,0l-1.8-.8c-.3-.1-.6,0-.9,0v-5.9h2.7v6.6ZM36,51.2h-2.7v-10.7h2.7v10.7ZM63.3,51.5l-1.7.6c-.3.1-.5.4-.6.7-.3,1.1-.7,2.2-1.3,3.1-.2.3-.2.6,0,.9l.7,1.6-1.7,1.7-1.6-.7c-.3-.1-.6-.1-.9,0-1,.6-2,1-3.1,1.3-.3,0-.5.3-.7.6l-.6,1.7h-2.4l-.6-1.7c-.1-.3-.4-.5-.7-.6-1.1-.3-2.2-.7-3.1-1.3-.3-.2-.6-.2-.9,0l-1.6.7-1.7-1.7.7-1.6c.1-.3.1-.6,0-.9-.6-1-1-2-1.3-3.1,0-.3-.3-.5-.6-.7l-1.7-.6v-2.4l1.7-.6c.3-.1.5-.4.6-.7.3-1.1.7-2.2,1.3-3.1.2-.3.2-.6,0-.9l-.7-1.6,1.7-1.7,1.6.7c.3.1.6.1.9,0,1-.6,2-1,3.1-1.3.3,0,.5-.3.7-.6l.6-1.7h2.4l.6,1.7c.1.3.4.5.7.6,1.1.3,2.2.7,3.1,1.3.3.2.6.2.9,0l1.6-.7,1.7,1.7-.7,1.6c-.1.3-.1.6,0,.9.6,1,1,2,1.3,3.1,0,.3.3.5.6.7l1.7.6v2.4ZM50.5,42.9c-4.1,0-7.4,3.3-7.4,7.4s3.3,7.4,7.4,7.4,7.4-3.3,7.4-7.4-3.3-7.4-7.4-7.4ZM50.5,55.8c-3,0-5.5-2.5-5.5-5.5s2.5-5.5,5.5-5.5,5.5,2.5,5.5,5.5-2.5,5.5-5.5,5.5Z"/></svg>