<?xml version="1.0" encoding="UTF-8"?><svg id="Layer_1" xmlns="http://www.w3.org/2000/svg" width="70" height="70" viewBox="0 0 70 70"><defs><style>.cls-1{fill:#1043ea;fill-rule:evenodd;}</style></defs><path class="cls-1" d="M59.3,43.9c-.2.7-.6,1.2-1.2,1.6l-22.5,13c-1.3.7-2.6.9-4.1.5-.7-.2-1.4-.4-2.1-.6-3.9-1.1-7-2-12-.9l-4.4-16.2c2-.4,3.7-1,5.2-1.6,2.3-.9,3.9-1.5,5.4-.6l5.4,3.1c1.8,1,3.7,1.3,5.7.8l4.1-1.1c1.7-.5,3.4.6,3.9,2.2.2.9,0,1.8-.4,2.5,0,0,0,0,0,0-.4.6-1,1.1-1.8,1.3l-6,1.6c-1,.3-2.1.3-3,0-.4-.1-.9.1-1,.6s.1.9.6,1c.6.2,1.2.2,1.9.2s1.3,0,2-.3l6-1.6c1.1-.3,2-1,2.6-1.8l11.9-6.9c.6-.3,1.3-.4,2-.3.7.2,1.2.6,1.6,1.2.3.6.4,1.3.3,2h0ZM13.4,60.5l2.9-.8-5.3-19.9-2.9.8,5.3,19.9ZM27.3,27.8c2,0,3.7,1.6,3.7,3.6s-1.6,3.6-3.7,3.6-3.7-1.6-3.7-3.6,1.6-3.6,3.7-3.6ZM30.5,40.2c0-1.2.3-2.4.8-3.5-.5-.3-1.1-.5-1.6-.7-.7.3-1.5.5-2.3.5s-1.6-.2-2.3-.5c-.8.2-1.6.6-2.2,1.1.6,0,1.1.3,1.7.6l5.4,3.1c.2.1.4.2.6.3v-1h0ZM37.3,33.8c-3,.6-5.2,3.3-5.2,6.4v1.5c.7,0,1.5,0,2.3-.2l4.1-1.1c2.6-.7,5.2.8,5.9,3.4.1.6.2,1.1.1,1.7l3.3-1.9v-3.4c0-3.1-2.2-5.8-5.2-6.4-.8.4-1.7.6-2.7.6-1,0-1.9-.2-2.7-.6h0ZM40,24.1c2.4,0,4.4,1.9,4.4,4.3s-2,4.3-4.4,4.3-4.4-1.9-4.4-4.3,2-4.3,4.4-4.3ZM50.4,36.1c-.6.1-1.1.4-1.6.7.5,1.1.8,2.3.8,3.5v2.4l5.2-3c1-.6,2.1-.7,3.2-.4.4.1.7.3,1.1.4-.6-1.8-2.1-3.1-4-3.5-.7.3-1.5.5-2.3.5-.8,0-1.6-.2-2.3-.5ZM52.7,27.8c2,0,3.7,1.6,3.7,3.6s-1.6,3.6-3.7,3.6-3.7-1.6-3.7-3.6,1.6-3.6,3.7-3.6ZM60.9,42.2v-.8c0-2.9-1.7-5.5-4.3-6.6.9-.9,1.4-2.2,1.4-3.5,0-2.9-2.4-5.2-5.3-5.2s-5.3,2.4-5.3,5.2.5,2.6,1.4,3.5c-.3.1-.6.3-.9.4-.1-.1-.2-.3-.3-.4-.9-1-2-1.8-3.2-2.3,1.1-1.1,1.7-2.5,1.7-4.2,0-3.3-2.7-6-6-6s-6,2.7-6,6,.7,3.1,1.7,4.2c-1.2.5-2.3,1.3-3.2,2.3-.1.1-.2.3-.3.4-.3-.2-.6-.3-.9-.4.9-.9,1.4-2.2,1.4-3.5,0-2.9-2.4-5.2-5.3-5.2s-5.3,2.4-5.3,5.2.5,2.6,1.4,3.5c-1.2.5-2.3,1.4-3,2.5-.9.2-1.8.6-2.7.9-1.5.6-3.1,1.2-5.1,1.5v-.5c-.2-.4-.5-.7-.9-1-.4-.2-.8-.3-1.2-.2l-3,.8c-.8.2-1.3,1.1-1.1,1.9l5.4,20.1c.1.4.4.7.7,1,.2.1.5.2.8.2s.3,0,.4,0l3-.8c.8-.2,1.3-1.1,1.1-1.9h0c4.5-1.2,7.3-.4,11.1.7.7.2,1.4.4,2.1.6.6.2,1.3.3,1.9.3,1.2,0,2.3-.3,3.4-1l22.5-13c1-.6,1.7-1.5,2-2.6.2-.7.2-1.4,0-2.1h0ZM23,22.8v1.3h6.7c.4-5.3,4.9-9.5,10.3-9.5s9.9,4.2,10.3,9.5h6.7v-1.3c0-.1-.1-.3-.3-.3h-2c-1.5,0-2.9-.9-3.4-2.3-.6-1.4-.3-3,.8-4.1l1.4-1.4c.1-.1.1-.3,0-.4l-3-3c0,0-.1,0-.2,0s-.1,0-.2,0l-1.4,1.4c-1.1,1.1-2.6,1.4-4.1.8-1.4-.6-2.3-1.9-2.3-3.4v-2c0-.1-.1-.3-.3-.3h-4.2c-.1,0-.3.1-.3.3v2c0,1.5-.9,2.9-2.3,3.4-1.4.6-3,.3-4.1-.8l-1.4-1.4c-.1-.1-.3-.1-.4,0l-3,3c0,0,0,.1,0,.2s0,.1,0,.2l1.4,1.4c1.1,1.1,1.4,2.6.8,4.1-.6,1.4-1.9,2.3-3.4,2.3h-2c-.1,0-.3.1-.3.3h0ZM22.2,25.7h8.3c.5,0,.8-.4.8-.8,0-4.8,3.9-8.7,8.7-8.7s8.7,3.9,8.7,8.7.4.8.8.8h8.3c.5,0,.8-.4.8-.8v-2.1c0-1.1-.9-1.9-1.9-1.9h-2c-.9,0-1.6-.5-1.9-1.3-.3-.8-.2-1.7.5-2.3l1.4-1.4c.7-.7.7-2,0-2.7l-3-3c-.4-.4-.8-.6-1.4-.6s-1,.2-1.4.6l-1.4,1.4c-.6.6-1.5.8-2.3.5-.8-.3-1.3-1.1-1.3-1.9v-2c0-1.1-.9-1.9-1.9-1.9h-4.2c-1.1,0-1.9.9-1.9,1.9v2c0,.9-.5,1.6-1.3,1.9-.8.3-1.7.2-2.3-.5l-1.4-1.4c-.7-.7-2-.7-2.7,0l-3,3c-.4.4-.6.8-.6,1.4s.2,1,.6,1.4l1.4,1.4c.6.6.8,1.5.5,2.3-.3.8-1.1,1.3-1.9,1.3h-2c-1.1,0-1.9.9-1.9,1.9v2.1c0,.5.4.8.8.8h0Z"/></svg>