<?xml version="1.0" encoding="UTF-8"?><svg id="Layer_1" xmlns="http://www.w3.org/2000/svg" width="70" height="70" viewBox="0 0 70 70"><defs><style>.cls-1{fill:#1043ea;}</style></defs><path class="cls-1" d="M57.9,17.3c0-.5-.7-.8-1.6-1-1.2-.2-2.1-.8-2.4-1.8-.3-.9,0-1.9.6-2.6.3-.4.8-.6,1.3-.8v-.6c0-.5.4-1,1-1s1,.4,1,1v.6c.6.2,1.2.6,1.6,1.1.3.4.3,1.1-.1,1.4-.4.3-1.1.3-1.4-.1-.3-.4-.7-.5-1-.5-.4,0-.7.1-.9.3-.2.2-.2.4-.1.6,0,.3.4.5.8.5,1.8.2,3,1.2,3.3,2.6.2,1.2-.4,2.4-1.5,2.9-.2.1-.4.2-.6.3v.6c0,.5-.4,1-1,1s-1-.4-1-1v-.6c-.2,0-.3,0-.5-.2-.8-.3-1.4-1-1.6-1.7-.2-.5.2-1.1.7-1.2.5-.2,1.1.2,1.2.7,0,.2.2.3.5.5.4.2,1,.2,1.4,0,.3-.2.5-.5.4-.8h0ZM7.7,33.7c0-.4-1.7-11,2.4-17.7,2.7-4.4,7.1-7.6,13.1-9.5l-.4-1.3c-.1-.3,0-.7.2-1,.2-.3.6-.4.9-.3l8.2,1.8c.3,0,.6.3.7.7s0,.7-.2,1l-5.6,6.2c-.2.3-.6.4-.9.3-.3,0-.6-.3-.7-.7l-.4-1.1c-6.6,2-11.1,6.1-13.6,12.2-1.9,4.8-1.7,9.2-1.7,9.2,0,.5-.4,1-.9,1,0,0,0,0-.1,0-.5,0-.9-.3-1-.8h0ZM9.7,23.4c2-4.8,6.3-10.9,15.7-13.5.5-.1,1,.2,1.2.7v.4c.1,0,3.5-3.6,3.5-3.6l-4.8-1.1.2.6c0,.3,0,.5,0,.8-.1.2-.3.4-.6.5-6,1.8-10.4,4.8-13,8.9-1.1,1.8-1.8,4.1-2.1,6.3h0ZM36.1,58c-1.6,0-3.3-.2-4.9-.5v6.3c0,1.4-1.1,2.6-2.6,2.6H9.9c-1.4,0-2.6-1.1-2.6-2.6v-9.5c-.4-.1-.7-.5-.7-1v-3.5c0-1.3,1-2.3,2.3-2.3h4.8v-1.4c0-1,.5-1.9,1.3-2.3-1.1-2.7-1.6-5.5-1.6-8.4,0-12.5,10.2-22.7,22.7-22.7s8.1,1.1,11.6,3.2c0,0,0,0,0,0,0-5,4.1-9.1,9.1-9.1s9.1,4.1,9.1,9.1-4.1,9.1-9.1,9.1-.4,0-.5,0c1.7,3.2,2.6,6.9,2.6,10.6,0,12.5-10.2,22.7-22.7,22.7h0ZM49.6,15.6c0,3.9,3.2,7.1,7.1,7.1s7.1-3.2,7.1-7.1-3.2-7.1-7.1-7.1-7.1,3.2-7.1,7.1ZM29.2,54.7l-9.7,2.4c0,0-.2,0-.2,0s-.2,0-.2,0l-9.7-2.4v9.1c0,.3.3.6.6.6h18.8c.3,0,.6-.3.6-.6v-9.1h0ZM30,49.7c0-.2-.2-.3-.3-.3H8.9c-.2,0-.3.2-.3.3v2.8l10.7,2.6,10.7-2.6v-2.8ZM22.4,47.4v-1.4c0-.4-.3-.7-.7-.7h-5.2c-.4,0-.7.3-.7.7v1.4h6.7ZM36.2,47.7c-.9-1.3-1.5-2.1-2-2.7-1.3-1.6-1.4-2-.8-3.8.2-.5.4-1.2.7-2.2l-3.3-1.5c-.2,0-.6,0-.9,0-1.1.1-1.8.2-2.3,0-.5-.2-.9-.3-1.2-.4-1.2-.4-2-.6-2.6-1.5-.5-.8-.7-1.8-.8-2.7-.2-1.6-.5-2.7-1.5-3.1-.3-.1-.5-.3-.6-.6-.8-2.6-1-5.1-.7-7.5-3.1,3.6-4.9,8.3-4.9,13.4s.5,5.5,1.6,8h4.6c1.5,0,2.7,1.2,2.7,2.7v1.4h5.3c1.3,0,2.3,1,2.3,2.3v3.5c0,.5-.3.8-.7,1v1.2c1.4.3,2.8.5,4.3.6.8-2.9,1.5-7.1.7-8.2h0ZM37.7,55.7c8.9-7.4,10.3-10.9,10.4-12.2,0-.5,0-2.8-1.7-4.5-1.8-1.6-4.7-2.1-8.8-1.5-.3,0-.7,0-.9-.3-1.6-1.8-3.8-2.4-6.8-2-1.6.3-2.4-.4-2.7-.9-.5-.7-.6-1.8,0-2.8.7-1.4,2.1-2.3,3.7-2.4,1.5,0,2.3,0,2.9.4.1-.2.2-.4.3-.6.6-1,1.2-2.1,1.8-3,.8-1.2,2.1-.9,2.9-.7.2,0,.6.1.8.1,0,0,.3-.5.2-2.3,0-1,.9-1.3,1.5-1.5.1,0,.2,0,.4-.1-.2-.2-.5-.4-.7-.6-.2-.2-.4-.3-.6-.5-.5-.5-1.6-1-2.5-.8-.9.3-1.3,1.3-1.6,2.2,0,.3-.4.6-.7.7-.4,0-.7,0-1-.3-.5-.5-1-.9-1.5-1.3-.9-.7-1.8-1.3-2.3-2.7-.2-.5,0-1,.4-1.2,1.3-.7,1.5-1.2,1.6-1.3-.1-.2-.6-.4-1-.5-3.3.7-6.2,2.2-8.7,4.2-1,2.7-1,5.8-.1,9.1,1.7,1,2,3,2.2,4.4.1.7.2,1.5.5,1.9.2.2.6.4,1.5.7.4.1.8.2,1.2.4.2,0,1,0,1.4-.1,1-.1,1.4-.2,1.8,0l4.1,1.9c.4.2.7.7.5,1.1-.4,1.5-.7,2.5-.9,3.1-.1.4-.3.9-.3,1,0,.1.4.5.7,1,.5.6,1.2,1.4,2.1,2.8.8,1.1.9,3.2.3,6.4-.2,1-.4,2-.6,2.7,0,0,0,0,.1,0h0ZM56.8,35.2c0-4-1.1-7.8-3.2-11.1-2.6-1-4.7-3.1-5.5-5.8-3.5-2.5-7.6-3.8-12-3.8s-1.1,0-1.7,0c0,.1.1.3.2.5.3,1.3-.8,2.3-1.7,2.9.3.4.8.8,1.3,1.2.2.2.4.3.6.5.7-1.4,1.6-1.9,2.4-2.1,1.6-.5,3.4.3,4.3,1.2.2.1.3.3.5.4.8.6,1.8,1.4,1.6,2.7-.2.9-1.1,1.2-1.8,1.5,0,0-.1,0-.2,0,0,1.8-.2,2.8-.9,3.4-.8.7-1.8.5-2.5.3-.3,0-.7-.2-.8-.1,0,0,0,0,0,0-.6.8-1.1,1.8-1.7,2.8-.4.8-.9,1.6-1.4,2.4-.2.3-.5.5-.9.5-.4,0-.7-.2-.8-.6-.2-.4-.3-.8-.4-1-.3,0-.9,0-1.4,0-.9,0-1.6.6-1.9,1.3-.2.4-.2.7-.1.7,0,0,.3.1.8,0,3.5-.5,6.3.2,8.3,2.2,4.5-.6,7.8.1,9.9,2.1,2.4,2.2,2.4,5.2,2.4,6.1-.2,2.7-3.1,6.6-9,11.8,9-2.3,15.7-10.4,15.7-20.1h0ZM22.3,62.5v-4c0-.5.4-1,1-1h4c.5,0,1,.4,1,1v4c0,.5-.4,1-1,1h-4c-.5,0-1-.4-1-1ZM24.3,61.5h2.1v-2.1h-2.1v2.1ZM64.5,36.8c0,.4,1.7,11-2.4,17.7-2.7,4.4-7.1,7.6-13.1,9.5l.4,1.3c.1.3,0,.7-.2,1-.2.2-.5.3-.7.3s-.1,0-.2,0l-8.2-1.8c-.3,0-.6-.3-.7-.7-.1-.3,0-.7.2-1l5.6-6.2c.2-.3.6-.4.9-.3.3,0,.6.3.7.7l.4,1.1c6.6-2,11.2-6.1,13.6-12.3,1.9-4.8,1.7-9.1,1.7-9.1,0-.5.4-1,.9-1,.5,0,1,.3,1.1.8h0ZM62.5,47.1c-2,4.8-6.3,10.9-15.7,13.5-.5.1-1-.2-1.2-.7v-.4c-.1,0-3.5,3.6-3.5,3.6l4.8,1.1-.2-.6c0-.3,0-.5,0-.8s.3-.4.6-.5c6-1.8,10.4-4.8,13-8.9,1.1-1.8,1.8-4.1,2.1-6.3h0ZM16.3,58.5v4c0,.5-.4,1-1,1h-4c-.5,0-1-.4-1-1v-4c0-.5.4-1,1-1h4c.5,0,1,.4,1,1ZM14.3,59.5h-2.1v2.1h2.1v-2.1Z"/></svg>