<?xml version="1.0" encoding="UTF-8"?><svg id="Layer_1" xmlns="http://www.w3.org/2000/svg" width="70" height="70" viewBox="0 0 70 70"><defs><style>.cls-1{fill:#1043ea;}</style></defs><path class="cls-1" d="M49,15.2c-3.6,0-6.4,2.9-6.4,6.4,0,3.6,2.9,6.4,6.4,6.4,3.6,0,6.4-2.9,6.4-6.4h0c0-3.6-2.9-6.4-6.4-6.4ZM49,26.2c-2.5,0-4.5-2-4.5-4.5,0-2.5,2-4.5,4.5-4.5,2.5,0,4.5,2,4.5,4.5h0c0,2.5-2,4.5-4.5,4.5Z"/><path class="cls-1" d="M61.1,18.4c-.3-1-.7-2-1.2-2.9l1.6-1.6c.4-.4.4-1,0-1.3l-3.3-3.4c-.4-.4-1-.4-1.3,0l-1.6,1.6c-.9-.5-1.9-.9-2.9-1.2v-2.2c0-.5-.4-1-1-1h-4.7c-.5,0-1,.4-1,1v2.2c-1,.3-2,.7-2.9,1.2l-1.6-1.6c-.4-.4-1-.4-1.3,0l-3.4,3.4c-.4.4-.4,1,0,1.3l1.6,1.6c-.5.9-.9,1.9-1.2,2.9h-2.2c-.5,0-1,.4-1,1v4.7c0,.5.4,1,1,1h2.2c.3,1,.7,2,1.2,2.9l-1.6,1.6c-.4.4-.4,1,0,1.3l3.4,3.4c.4.4,1,.4,1.3,0l1.6-1.6c.9.5,1.9.9,2.9,1.2v2.2c0,.5.4,1,1,1h4.7c.5,0,1-.4,1-1v-2.2c1-.3,2-.7,2.9-1.2l1.6,1.6c.4.4,1,.4,1.3,0l3.3-3.4c.4-.4.4-1,0-1.3l-1.6-1.6c.5-.9.9-1.9,1.2-2.9h2.2c.5,0,1-.4,1-1v-4.7c0-.5-.4-1-1-1h-2.2ZM62.4,23.1h-2c-.5,0-.8.3-.9.8-.3,1.3-.8,2.6-1.5,3.7-.2.4-.2.9.1,1.2l1.4,1.4-2,2-1.4-1.4c-.3-.3-.8-.4-1.2-.1-1.1.7-2.4,1.3-3.7,1.5-.4,0-.8.5-.8.9v2h-2.8v-2c0-.5-.3-.8-.8-.9-1.3-.3-2.5-.8-3.7-1.5-.4-.2-.9-.2-1.2.1l-1.4,1.4-2-2,1.4-1.4c.3-.3.4-.8.1-1.2-.7-1.1-1.3-2.4-1.5-3.7,0-.4-.5-.8-.9-.8h-2v-2.8h2c.5,0,.8-.3.9-.8.3-1.3.8-2.6,1.5-3.7.2-.4.2-.9-.1-1.2l-1.4-1.4,2-2,1.4,1.4c.3.3.8.4,1.2.1,1.1-.7,2.4-1.3,3.7-1.5.4,0,.8-.5.8-.9v-2h2.8v2c0,.5.3.8.8.9,1.3.3,2.6.8,3.7,1.5.4.2.9.2,1.2-.1l1.4-1.4,2,2-1.4,1.4c-.3.3-.4.8-.1,1.2.7,1.1,1.3,2.4,1.5,3.7,0,.4.5.8.9.8h2v2.8Z"/><path class="cls-1" d="M10.9,62.7c1,.6,2.2.9,3.3.9h40.7c.5,0,1-.4,1-1s-.4-1-1-1h-6.1l6.7-12.4c.7-1.2.2-2.8-1-3.4-.4-.2-.8-.3-1.2-.3h-16.2v-.6c0-3.6-2.9-6.5-6.5-6.5h-13.2c-5.2,0-9.5,4.3-9.5,9.5,0,0,0,0,0,0v9.4c0,2.2,1.2,4.3,3.1,5.4ZM53.3,47.4c.3,0,.6.3.6.6,0,.1,0,.2,0,.3l-5,9.1h-10.1c-.5,0-1,.4-1,1s.4,1,1,1h9.1l-1.2,2.3h-21.3l7.6-13.2c.4-.7,1.1-1.1,1.8-1.1h18.5ZM9.8,47.9c0-4.2,3.4-7.6,7.6-7.6h13.2c2.6,0,4.6,2.1,4.6,4.6h0v.6h-.4c-1.4,0-2.8.8-3.5,2l-4,6.9h-7.9c-1,0-1.8-.8-1.8-1.8v-3.3c0-.5-.4-1-1-1s-1,.4-1,1v3.3c0,2,1.6,3.7,3.7,3.7h6.8l-3.1,5.4h-8.9c-2.5,0-4.5-2-4.5-4.5h0v-9.4Z"/><path class="cls-1" d="M21.6,19.6c-4.7,0-8.4,3.8-8.4,8.5,0,4.7,3.8,8.4,8.5,8.4,4.7,0,8.4-3.8,8.4-8.4,0-4.7-3.8-8.4-8.5-8.4ZM21.6,34.6c-3.6,0-6.5-2.9-6.5-6.5,0-3.6,2.9-6.5,6.5-6.5,3.6,0,6.5,2.9,6.5,6.5,0,3.6-2.9,6.5-6.5,6.5Z"/><path class="cls-1" d="M34.4,58.5c0,.5.4,1,1,1h.5c.5,0,1-.4,1-1s-.4-1-1-1h-.5c-.5,0-1,.4-1,1Z"/></svg>