<svg width="67" height="66" viewBox="0 0 67 66" fill="none" xmlns="http://www.w3.org/2000/svg">
<path d="M31.0507 10.9602H35.9175V45.9627H31.0507V10.9602ZM44.4443 0.915H49.3111V45.9627H44.4443V0.915ZM17.657 21.0054H22.5238V45.9627H17.657V21.0054ZM0.915 54.4895H52.6595V59.3563H0.915V54.4895ZM4.26341 31.0507H9.13022V45.9627H4.26341V31.0507Z" fill="#E7D0FF" stroke="#575757" stroke-width="1.83"/>
<path d="M66.0839 41.8202C66.0839 54.2134 56.0372 64.2601 43.644 64.2601C31.2507 64.2601 21.2041 54.2134 21.2041 41.8202C21.2041 29.427 31.2507 19.3803 43.644 19.3803C56.0372 19.3803 66.0839 29.427 66.0839 41.8202Z" fill="#E7D0FF" stroke="#575757" stroke-width="1.83"/>
<path d="M53.5389 34.8255V31.8135H42.2437H38.4787H36.9727V34.8255H38.4787H42.2437C44.2046 34.8255 45.8597 36.0876 46.4832 37.8376H36.9727V40.8496H46.4832C45.8597 42.5996 44.2031 43.8616 42.2437 43.8616H36.9727V47.4972L45.3853 55.9098H49.6443L40.6082 46.8737H42.2437C45.8793 46.8737 48.9229 44.2818 49.6202 40.8496H53.5389V37.8376H49.6202C49.3928 36.7171 48.8958 35.705 48.2286 34.8255H53.5389Z" fill="#575757"/>
</svg>
