<?xml version="1.0" encoding="UTF-8"?><svg id="Layer_1" xmlns="http://www.w3.org/2000/svg" width="70" height="70" viewBox="0 0 70 70"><defs><style>.cls-1{fill:#1043ea;fill-rule:evenodd;}</style></defs><path class="cls-1" d="M28.6,60.5H8.6v-1.2h20.1v1.2h0ZM21.8,58.2h-6.4v-5.2h6.4v5.2ZM10.5,47.8v10.4h3.8v-5.2c0-.6.5-1.1,1.1-1.1h6.4c.6,0,1.1.5,1.1,1.1v5.2h3.8v-7.9c0-.3-.2-.5-.5-.5l-15.1-2.5c-.2,0-.3,0-.4.1-.1.1-.2.2-.2.4ZM13.3,38h2.2l.3,8.9-2.9-.5.3-8.4ZM22.3,42h2.2l.2,6.3-2.7-.4.2-5.9ZM28.6,58.2h-.8v-7.9c0-.8-.6-1.5-1.4-1.6h-.5c0,0-.2-6.6-.2-6.6,0-.6-.5-1.1-1.1-1.1h-2.2c-.6,0-1.1.5-1.1,1.1l-.2,5.7-4-.6-.3-9.1c0-.6-.5-1.1-1.1-1.1h-2.2c-.6,0-1.1.5-1.1,1.1l-.3,8.3h-.6c-.5-.2-1,0-1.3.3-.4.3-.6.8-.6,1.3v10.4h-.8c-.6,0-1.1.5-1.1,1.1v1.2c0,.6.5,1.1,1.1,1.1h20.1c.6,0,1.1-.5,1.1-1.1v-1.2c0-.6-.5-1.1-1.1-1.1h0ZM49.8,15.5c0-.3.2-.6.5-.6h2.1c.9,0,1.7.7,1.7,1.7v15.8l1.4-1.4c.2-.2.6-.2.8,0,.2.2.2.6,0,.8l-2.4,2.2c-.1.1-.2.1-.4.1s-.3,0-.4-.1l-2.4-2.2c-.2-.2-.2-.6,0-.8.2-.2.6-.2.8,0l1.4,1.4v-15.8c0-.3-.2-.6-.5-.6h-2.1c-.3,0-.5-.2-.5-.6ZM25,9.5c0-.5.4-.8.8-.8h12.8c.5,0,.8.4.8.8v9.2h-8.7c-.3-1.2-1.3-2.1-2.6-2.1s-2.3.9-2.6,2.1c-.3-.1-.6-.4-.6-.8v-8.4ZM28.2,20.8c.9,0,1.6-.7,1.6-1.6s-.7-1.6-1.6-1.6-1.5.7-1.5,1.6.7,1.6,1.5,1.6ZM40.6,10.5h2.2v3.1c0,1,.8,1.8,1.8,1.8h2.7v2.6c0,.3-.3.6-.6.7-.3-1.2-1.3-2.1-2.6-2.1s-2.3.9-2.6,2.1h-1v-8.2h0ZM45.5,11.2c-.2-.4-.7-.7-1.2-.7h-.4v3.1c0,.4.3.7.7.7h2.6s0,0,0,0l-1.7-3.1ZM44.2,20.8c.9,0,1.5-.7,1.5-1.6s-.7-1.6-1.5-1.6-1.5.7-1.5,1.6.7,1.6,1.5,1.6ZM25.6,19.8c.2,1.2,1.3,2.1,2.6,2.1s2.3-.9,2.6-2.1h10.8c.3,1.2,1.3,2.1,2.6,2.1s2.3-.9,2.6-2.1c.9,0,1.7-.8,1.7-1.8v-3.2c0-.4,0-.8-.3-1.2l-1.7-3.1c-.4-.8-1.2-1.2-2.1-1.2h-3.7c0-1-.9-1.8-1.9-1.8h-12.8c-1.1,0-1.9.9-1.9,1.9v8.4c0,1,.7,1.8,1.7,1.9ZM39.8,38.1l.8.9c.1.1.1.3,0,.5-.4.4-.8.8-1.2,1.2-.1.1-.3.1-.5,0l-.9-.8c-.4-.3-.9-.4-1.4-.2-.5.2-.8.6-.8,1.2v1.2c-.1.2-.2.3-.4.3-.6,0-1.1,0-1.7,0-.2,0-.3-.1-.3-.3v-1.2c-.2-.5-.5-1-1-1.1-.2,0-.3-.1-.5-.1-.3,0-.6.1-.9.3l-.9.8c-.1.1-.3.1-.5,0-.4-.4-.8-.8-1.2-1.2-.1-.1-.1-.3,0-.5l.8-.9c.3-.4.4-.9.2-1.4-.2-.5-.6-.8-1.2-.8h-1.2c-.2-.1-.3-.2-.3-.4,0-.6,0-1.1,0-1.7,0-.2.1-.3.3-.3h1.2c.5-.2,1-.5,1.1-1,.2-.5.1-1-.2-1.4l-.8-.9c-.1-.1-.1-.3,0-.5.4-.4.8-.8,1.2-1.2.1-.1.3-.1.5,0l.9.8c.4.3.9.4,1.4.2.5-.2.8-.6.8-1.2v-1.2c.1-.2.2-.3.4-.3.6,0,1.1,0,1.7,0,.2,0,.3.1.3.3v1.2c.2.5.5,1,1,1.1.5.2,1,.1,1.4-.2l.9-.8c.1-.1.3-.1.5,0,.4.4.8.8,1.2,1.2.1.1.1.3,0,.5l-.8.9c-.3.4-.4.9-.2,1.4.2.5.6.8,1.2.8h1.2c.2.1.3.2.3.4,0,.6,0,1.1,0,1.7,0,.2-.1.3-.3.3h-1.2c-.5.2-.9.5-1.1,1-.2.5-.1,1,.2,1.4h0ZM40.8,36.9c-.1,0-.2.1-.2.2s0,.2,0,.3l.8.9c.5.5.5,1.3,0,1.9-.4.5-.9,1-1.4,1.4-.5.4-1.3.4-1.9,0l-.9-.8c-.1,0-.2,0-.3,0,0,0-.1,0-.2.2v1.2c-.2.7-.7,1.3-1.4,1.3-.3,0-.7,0-1,0s-.6,0-.9,0c-.7,0-1.2-.6-1.3-1.3v-1.2c-.1-.1-.2-.2-.3-.2,0,0-.2,0-.3,0l-.9.8c-.5.5-1.3.5-1.9,0-.5-.4-1-.9-1.4-1.4-.4-.5-.4-1.3,0-1.9l.8-.9c0-.1,0-.2,0-.3,0,0,0-.2-.2-.2h-1.2c-.7-.2-1.3-.7-1.3-1.4,0-.6,0-1.3,0-1.9,0-.7.6-1.2,1.3-1.3h1.2c.1-.1.2-.2.2-.3,0,0,0-.2,0-.3l-.8-.9c-.5-.5-.5-1.3,0-1.9.4-.5.9-1,1.4-1.4.5-.4,1.3-.4,1.9,0l.9.8c.1,0,.2,0,.3,0,0,0,.2,0,.2-.2v-1.2c.2-.7.7-1.3,1.4-1.3.6,0,1.3,0,1.9,0,.7,0,1.2.6,1.3,1.3v1.2c.1.1.2.2.3.2,0,0,.2,0,.3,0l.9-.8c.5-.5,1.3-.5,1.9,0,.5.4,1,.9,1.4,1.4.4.5.4,1.3,0,1.9l-.8.9c0,.1,0,.2,0,.3,0,0,0,.2.2.2h1.2c.7.2,1.3.7,1.3,1.4,0,.6,0,1.3,0,1.9,0,.7-.6,1.2-1.3,1.3h-1.2ZM34.5,37.5c1.6,0,2.9-1.3,2.9-2.9s-1.3-2.9-2.9-2.9-2.9,1.3-2.9,2.9,1.3,2.9,2.9,2.9ZM34.5,30.5c-2.2,0-4,1.8-4,4.1s1.8,4.1,4,4.1,4-1.8,4-4.1-1.8-4.1-4-4.1ZM40.1,53.7c0,.3-.2.6-.6.6h-7.3l1.4,1.4c.2.2.2.6,0,.8-.1.1-.2.2-.4.2s-.3,0-.4-.2l-2.2-2.4c-.2-.2-.2-.5,0-.8l2.2-2.4c.2-.2.6-.2.8,0,.2.2.2.6,0,.8l-1.4,1.4h7.3c.3,0,.6.2.6.6h0ZM14.8,33.6v-17c0-.9.7-1.7,1.7-1.7h3.5l-1.4-1.4c-.2-.2-.2-.6,0-.8.2-.2.6-.2.8,0l2.2,2.4c.2.2.2.5,0,.8l-2.2,2.4c-.2.2-.6.2-.8,0-.2-.2-.2-.6,0-.8l1.4-1.4h-3.5c-.3,0-.5.2-.5.6v17c0,.3-.2.6-.6.6-.3,0-.5-.2-.5-.6ZM59.6,58.3c-2.3,1.6-5.7,2.1-7.5,2.1s-5.2-.6-7.5-2.1c-.5-.4-.8-1-.7-1.6.6-4,4.1-7.1,8.2-7.2,4.1,0,7.6,3.1,8.2,7.2,0,.7-.2,1.2-.7,1.6ZM61.4,56.6c-.3-2.2-1.4-4.2-3.1-5.7-1.7-1.5-3.9-2.4-6.1-2.4h0c-2.3,0-4.4.9-6.1,2.4-1.7,1.5-2.8,3.5-3.1,5.7-.2,1.1.3,2.1,1.2,2.7,2.3,1.6,5.8,2.3,8.1,2.3s5.7-.7,8.1-2.3c.9-.6,1.3-1.6,1.2-2.7ZM52.2,38.9c2,0,3.6,1.6,3.6,3.6s-1.6,3.6-3.6,3.6-3.6-1.6-3.6-3.6c0-2,1.6-3.6,3.6-3.6h0ZM52.2,47.1c2.6,0,4.7-2.1,4.7-4.7s-2.1-4.7-4.7-4.7-4.7,2.1-4.7,4.7c0,2.6,2.1,4.7,4.7,4.7h0Z"/></svg>