<?xml version="1.0" encoding="UTF-8"?><svg id="a" xmlns="http://www.w3.org/2000/svg" viewBox="0 0 70 70"><path d="M56.42,12.51c-.77-3.62-4.36-6.3-8.56-6.3s-7.79,2.68-8.56,6.3c-4.91,2.98-7.92,8.31-7.93,14.06v2.91s0,.03,0,.04c0,.54.09,1.07.25,1.58.57,1.66,2,2.87,3.73,3.14.64,4.39,3.55,8.11,7.65,9.79v2.38l-2.26,1.51c-4.69.17-8.4,4.02-8.41,8.71v1.94h-9.7v-4.59c0-1.02.54-1.97,1.41-2.5l.62-.37c.56.54,1.27.91,2.04,1.04.21.04.43.05.65.05.87,0,1.71-.29,2.4-.83l4.23-3.34c1.44-1.15,1.68-3.25.53-4.7-.99-1.24-2.71-1.62-4.12-.9l-4.8,2.43c-1.68.84-2.5,2.79-1.93,4.58l-.61.37c-1.46.88-2.35,2.45-2.36,4.16v4.59h-12.61c-1.07,0-1.94.87-1.94,1.94v1.94c0,1.07.87,1.94,1.94,1.94h54.31c1.07,0,1.94-.87,1.94-1.94v-1.94c0-.69-.37-1.33-.97-1.67v-2.21c0-4.69-3.72-8.54-8.41-8.71l-2.26-1.51v-2.42c4.02-1.75,6.87-5.42,7.56-9.75,2.34-.38,4.07-2.4,4.07-4.77v-2.91c0-5.75-3.01-11.08-7.93-14.06ZM25.49,47.81c.14-.52.5-.96.98-1.2l4.81-2.43c.2-.1.41-.15.63-.15.48,0,.92.24,1.17.65.15.23.22.49.23.76,0,.42-.19.83-.52,1.09l-4.23,3.33c-.84.66-2.06.51-2.72-.33-.04-.05-.07-.1-.11-.15,0,0,0-.01,0-.02h0c-.28-.47-.36-1.02-.22-1.54ZM47.85,8.15c2.39-.06,4.65,1.1,5.99,3.08-3.85-1.52-8.13-1.52-11.98,0,1.34-1.98,3.6-3.14,5.99-3.08ZM47.85,12.03c7.64.01,13.98,5.93,14.5,13.56-.56-.42-1.2-.71-1.89-.86v-.13c0-1.56-1.2-2.86-2.75-2.98-3.05-.26-5.18-1.17-6.7-2.86-.56-.61-1.36-.95-2.19-.91-4.32.13-8.5,1.54-12.01,4.05-.9.67-1.47,1.71-1.54,2.83-.69.14-1.34.43-1.9.84.53-7.62,6.86-13.54,14.5-13.55ZM33.47,30.5c-.32-.92-.17-1.93.39-2.73.35-.47.83-.82,1.39-1.01v5.47c-.83-.27-1.48-.91-1.77-1.73ZM34.28,56.63c0-3.37,2.48-6.23,5.82-6.71v4.77c0,1.07.87,1.94,1.94,1.94h1.39l1.16,1.94h-10.31v-1.94ZM8.09,62.45v-1.94h54.31v1.94H8.09ZM61.43,56.63v1.94h-10.31l1.16-1.94h1.39c1.07,0,1.94-.87,1.94-1.94v-4.77c3.34.48,5.81,3.34,5.82,6.71ZM53.67,54.7h-1.39c-.68,0-1.31.36-1.66.94l-1.76,2.94h-2.01l-1.76-2.94c-.35-.58-.98-.94-1.66-.94h-1.39v-5.3l1.54-1.03,3.09,6.55c.31.65,1.09.93,1.74.62.27-.13.5-.35.62-.62l3.09-6.55,1.54,1.03v5.3ZM50.76,46.72l-2.91,6.16-2.91-6.16v-2.07c.95.22,1.92.34,2.9.34.21,0,.43,0,.64-.02.77-.04,1.53-.15,2.28-.33v2.07ZM48.39,43.04c-5.74.33-10.7-3.96-11.2-9.68v-8.34c0-.61.28-1.19.77-1.55,3.2-2.28,7.01-3.57,10.94-3.69h.04c.24,0,.47.09.63.26,1.85,2.05,4.46,3.2,7.98,3.5.55.04.98.5.98,1.05v7.44c.1,5.79-4.36,10.63-10.13,11.01ZM60.45,32.21c0-.06,0-.12,0-.18v-5.29c1.51.53,2.3,2.18,1.78,3.68-.29.84-.95,1.49-1.79,1.78Z" style="fill:#1043e9;"/><path d="M52.05,36.39c-.47-.24-1.05-.06-1.3.41-.67.98-1.83,1.53-3.02,1.42-1.19.11-2.34-.43-3.02-1.41-.25-.47-.84-.65-1.31-.4-.46.24-.64.81-.42,1.28,1,1.65,2.83,2.6,4.75,2.48,1.92.13,3.75-.83,4.75-2.48.23-.47.04-1.05-.43-1.29Z" style="fill:#1043e9;"/><path d="M17.79,29.48c6.43,0,11.64-5.21,11.64-11.64s-5.21-11.64-11.64-11.64-11.64,5.21-11.64,11.64c0,6.42,5.21,11.63,11.64,11.64ZM27.44,16.87h-2.89c-.04-.98-.16-1.95-.35-2.91h2.47c.41.92.67,1.91.77,2.91h0ZM16.82,23.66v3.67c-1.4-.81-2.42-2.13-2.87-3.67h2.87ZM13.37,21.72c-.21-.96-.35-1.93-.4-2.91h3.85v2.91h-3.46ZM18.76,27.34v-3.67h2.87c-.45,1.55-1.48,2.87-2.87,3.67ZM18.76,21.72v-2.91h3.85c-.05.98-.18,1.95-.4,2.91h-3.46ZM24.55,18.81h2.89c-.1,1-.36,1.99-.77,2.91h-2.47c.19-.96.31-1.93.35-2.91ZM22.61,16.87h-3.85v-2.91h3.46c.21.96.35,1.93.4,2.91h0ZM18.76,12.03v-3.67c1.4.81,2.42,2.13,2.87,3.67h-2.87ZM16.82,8.35v3.67h-2.87c.45-1.55,1.48-2.87,2.87-3.67ZM16.82,13.96v2.91h-3.85c.05-.98.18-1.95.4-2.91h3.46ZM11.03,16.87h-2.89c.1-1,.36-1.99.77-2.91h2.47c-.19.96-.31,1.93-.35,2.91ZM11.03,18.81c.04.98.16,1.95.35,2.91h-2.47c-.41-.92-.67-1.91-.77-2.91h2.89ZM10.05,23.66h1.84c.3.93.71,1.83,1.22,2.67-1.2-.66-2.24-1.57-3.07-2.67ZM22.46,26.33c.51-.84.92-1.74,1.23-2.67h1.84c-.82,1.1-1.87,2.01-3.07,2.67h0ZM25.53,12.03h-1.84c-.3-.93-.71-1.83-1.22-2.67,1.2.66,2.24,1.57,3.07,2.67ZM13.11,9.35c-.51.84-.92,1.74-1.22,2.67h-1.84c.82-1.1,1.87-2.01,3.07-2.67Z" style="fill:#13e8b1;"/></svg>