<?xml version="1.0" encoding="UTF-8"?><svg id="Layer_1" xmlns="http://www.w3.org/2000/svg" width="70" height="70" viewBox="0 0 70 70"><defs><style>.cls-1{fill:#1043ea;}</style></defs><path class="cls-1" d="M61.4,11.7h-8l-4.4-4.4c-.2-.2-.4-.3-.7-.3h-29c-.5,0-.9.4-.9.9v2.8h-.6c-1.2,0-2.2,1-2.2,2.2v1.1c0,.1,0,.2-.2.3-.1,0-.2,0-.3,0l-.8-.8c-.8-.8-2.2-.8-3.1,0l-2.2,2.2c-.8.8-.9,2.2,0,3.1l.8.8c0,0,.1.2,0,.3,0,.1-.2.2-.3.2h-1.1c-1.2,0-2.2,1-2.2,2.2v3.1c0,1.2,1,2.2,2.2,2.2h1.1c.1,0,.2,0,.3.2,0,.1,0,.2,0,.3l-.8.8c-.8.8-.8,2.2,0,3.1l2.2,2.2c.8.8,2.2.8,3.1,0l.8-.8c0,0,.2-.1.3,0,.1,0,.2.2.2.3v1.1c0,1.2,1,2.2,2.2,2.2h.6v4.6h-.2c0,0-8.2,0-8.2,0-.5,0-.9.4-.9.9v.3l-2.2.7c-.4.1-.6.5-.6.9v3.7c0,.4.3.8.6.9l2.2.7v.3c0,.5.4.9.9.9h.9v7.5c0,.5.4.9.9.9h3.7c.5,0,.9-.4.9-.8l.8-7.6h1v6.5c0,.5.4.9.9.9h3.7v3.7c0,.5.4.9.9.9h37.4c.5,0,.9-.4.9-.9V12.6c0-.5-.4-.9-.9-.9ZM9.1,47.7l-.9-.3v-2.4l.9-.3v3ZM14.7,57.4h-2v-6.5h2.7l-.7,6.5ZM17.5,49h-6.5v-5.6h6.5v5.6ZM18.4,27.4c-2-.5-3.2-2.5-2.7-4.5.3-1.3,1.4-2.4,2.7-2.7v7.2ZM18.4,18.3c-3,.5-5.1,3.4-4.6,6.4.4,2.4,2.2,4.2,4.6,4.6v5.7h-.6c-.2,0-.3-.1-.3-.3,0,0,0,0,0,0v-1.1c0-1.2-1-2.2-2.2-2.2-.6,0-1.1.2-1.5.6l-.8.8c-.1.1-.3.1-.4,0,0,0,0,0,0,0l-2.2-2.2c-.1-.1-.1-.3,0-.4,0,0,0,0,0,0l.8-.8c.8-.9.8-2.2,0-3.1-.4-.4-1-.6-1.5-.6h-1.1c-.2,0-.3-.1-.3-.3,0,0,0,0,0,0v-3.1c0-.2.1-.3.3-.3,0,0,0,0,0,0h1.1c1.2,0,2.2-1,2.2-2.2,0-.6-.2-1.1-.6-1.5l-.8-.8c-.1-.1-.1-.3,0-.4,0,0,0,0,0,0l2.2-2.2c.1-.1.3-.1.4,0,0,0,0,0,0,0l.8.8c.9.8,2.2.8,3.1,0,.4-.4.6-1,.6-1.5v-1.1c0-.2.1-.3.3-.3,0,0,0,0,0,0h.6v5.7ZM49.2,10.2l5.2,5.2h-5.2v-5.2ZM19.3,43.1l10.3-4v14.1l-10.3-4v-6.2ZM20.3,56.5v-4.8l9.9,3.8c.1,0,.2,0,.3,0,.5,0,.9-.4.9-.9v-5.6h.9c1.5,0,2.8-1.3,2.8-2.8s-1.3-2.8-2.8-2.8h-.9v-5.6c0-.3-.1-.6-.4-.8-.3-.2-.6-.2-.9-.1l-9.9,3.8V8.9h27.1v7.5c0,.5.4.9.9.9h7.5v39.2H20.3ZM31.5,47.1v-1.9h.9c.5,0,.9.4.9.9s-.4.9-.9.9h-.9ZM60.4,61.1H24.9v-2.8h31.8c.5,0,.9-.4.9-.9V16.3c0-.2,0-.5-.3-.7l-2.1-2.1h5.2v47.6Z"/><rect class="cls-1" x="27.7" y="15.4" width="17.7" height="1.9"/><rect class="cls-1" x="22.1" y="15.4" width="3.7" height="1.9"/><rect class="cls-1" x="27.7" y="10.7" width="17.7" height="1.9"/><rect class="cls-1" x="22.1" y="10.7" width="3.7" height="1.9"/><path class="cls-1" d="M52.9,30.3h-1.9v-9.3c0-.5-.4-.9-.9-.9h-4.7c-.5,0-.9.4-.9.9v9.3h-2.8v-7.5c0-.5-.4-.9-.9-.9h-4.7c-.5,0-.9.4-.9.9v7.5h-2.8v-4.7c0-.5-.4-.9-.9-.9h-4.7c-.5,0-.9.4-.9.9v4.7h-1.9c-.5,0-.9.4-.9.9v3.7c0,.5.4.9.9.9h29c.5,0,.9-.4.9-.9v-3.7c0-.5-.4-.9-.9-.9ZM46.4,21.9h2.8v8.4h-2.8v-8.4ZM37.1,23.8h2.8v6.5h-2.8v-6.5ZM27.7,26.6h2.8v3.7h-2.8v-3.7ZM52,34.1h-27.1v-1.9h27.1v1.9Z"/><path class="cls-1" d="M45.5,37.8c-4.6,0-8.4,3.8-8.4,8.4s3.8,8.4,8.4,8.4,8.4-3.8,8.4-8.4c0-4.6-3.8-8.4-8.4-8.4ZM46.4,39.7c1.5.2,2.9,1,3.9,2.1l-3.9,2.6v-4.7ZM45.5,52.7c-3.6,0-6.5-3-6.5-6.6,0-3.2,2.4-5.9,5.6-6.4v6.5c0,.4.2.7.6.9l5.9,2.5c-1.2,1.9-3.3,3.1-5.6,3.1ZM47.4,46l3.9-2.6c.4.9.6,1.8.6,2.8,0,.6,0,1.1-.2,1.7l-4.4-1.9Z"/></svg>