<?xml version="1.0" encoding="UTF-8"?><svg id="Layer_1" xmlns="http://www.w3.org/2000/svg" width="70" height="70" viewBox="0 0 70 70"><defs><style>.cls-1{fill:#1043ea;}</style></defs><path class="cls-1" d="M55.2,45.7c.9-.7,1.6-1.7,1.9-2.9l.5-.4c.9-.9,1.7-2,2.1-3.3.3-.8.4-1.7.4-2.5v-.7c0-1.4-.5-2.8-1.3-3.9-.2-.3-.4-.5-.7-.7h1.9v-9.2h-2.4c-1.1,0-2.1-.7-2.6-1.8-.4-1-.2-2.2.6-3l1.7-1.7-6.5-6.5-1.7,1.7c-.8.8-2,1-3.1.6-1-.4-1.7-1.4-1.7-2.6v-2.4h-9.2v2.4c0,1.1-.7,2.1-1.8,2.6-1,.4-2.2.2-3-.6l-1.7-1.7-6.5,6.5,1.7,1.7c.8.8,1,2,.6,3.1-.2.5-.5.9-.9,1.1-.8-.8-2-1.3-3.2-1.3h-4.4c-3.3,0-6.3,1.4-8.5,3.9-1.7,2-2.7,4.6-2.7,7.2v.4c0,2.3,1,4.5,2.8,6l4,3.4-.2,1.7c-1.8,1.9-2.8,4.4-2.8,7.1v.9c0,3,.9,6,2.5,8.6,1.6,2.6,4.3,4.1,7.4,4.1h43.5v-8.3c0-4.4-2.8-8.1-6.7-9.5h0ZM48.1,61.6h-15.2c.3-.5.5-1.2.5-1.8,0-1.3-.7-2.5-1.7-3.1.3-2.1,1.4-3.8,2.9-5.1l5.2,7,5.3-7c1.8,1.5,3,3.8,3,6.4v3.7ZM24.1,56.1v-.8c0-2.3-.6-4.4-1.7-6.4,0,0,0,0,.1-.1l5.3,7,5.2-7c.3.3.6.6.9.9-2.1,1.5-3.7,3.8-4.2,6.4,0,0-.1,0-.2,0h-5.5ZM12.6,34.9c-.2-.2-.4-.6-.4-.9,0-.5.4-.9.9-.9h.4l2.3-2.9c.4-.5.9-.9,1.4-1.2.4.2.9.4,1.4.4h1.8c1,0,1.8-.3,2.6-.8.5,1.1.9,2.6,1,4.5h-1.8v3.7c0,.3,0,.6-.1.9h-1.5c-.9,0-1.7-.5-2.2-1.3l-1.6.8c.7,1.4,2.2,2.3,3.8,2.3h.4c-.6.6-1.5.9-2.4.9h-3.7v1.8h1.8v1.4c-.6-.3-1.2-.5-1.9-.7l-1.7-.5.9-6.1-1.5-1.5ZM28.7,26.7c0-6.1,5-11,11-11s11,5,11,11-.1,1.9-.4,2.8h-.6c-.5,0-.9,0-1.4.2.3-.9.5-1.9.5-2.9,0-5.1-4.1-9.2-9.2-9.2s-9.2,4.1-9.2,9.2.2,2,.5,2.9c-.5-.1-.9-.2-1.4-.2h-.6c-.2-.9-.4-1.8-.4-2.8ZM46.2,39.3h0c0,.7-.1,1.3-.3,2-.1.4-.4.9-.6,1.3v-.5c0-.8-.5-1.5-1.3-1.7-1.3-.4-2.4-1.1-3.4-2.1l-.9-.9-.9.9c-.9.9-2.1,1.7-3.4,2.1-.8.3-1.3,1-1.3,1.7v.5c-.2-.4-.5-.8-.6-1.3-.2-.6-.3-1.3-.3-1.9h0v-.7c0-1,.3-2,.9-2.8.9-1.2,2.2-1.8,3.7-1.8h3.7c1.4,0,2.8.7,3.7,1.8.6.8.9,1.8.9,2.8v.7ZM43.5,50.5l-2.8,3.7v-4.5c1,.1,1.9.4,2.8.8h0ZM31.3,45.7c.7-.5,1.2-1.2,1.5-2,.3.5.7,1,1.2,1.4l.5.4c.3,1.2,1,2.2,1.9,2.9-.2,0-.5.2-.7.3-1.2-1.4-2.7-2.5-4.3-3.1ZM24.1,41.4v-2.1c1.4-.5,2.6-1.2,3.7-2.1,1.1,1,2.3,1.7,3.7,2.1h0v2.1c0,2-1.7,3.7-3.7,3.7s-3.7-1.7-3.7-3.7ZM26.9,51.5l-2.8-3.7c.9-.4,1.8-.7,2.8-.8v4.5ZM28.7,47c1,.1,1.9.4,2.8.8l-2.8,3.7v-4.5ZM38.9,49.7v4.5l-2.8-3.7c.9-.4,1.8-.7,2.8-.8ZM39.8,47.8c-2,0-3.7-1.7-3.7-3.7v-2.1c1.4-.5,2.6-1.2,3.7-2.1,1.1,1,2.3,1.7,3.7,2.1v2.1c0,2-1.7,3.7-3.7,3.7ZM41.6,32.2h-3.7c-.9,0-1.8.2-2.6.6-.1-.3-.3-.5-.5-.8-.3-.4-.6-.8-1-1.1-.9-1.2-1.4-2.7-1.4-4.3,0-4.1,3.3-7.4,7.4-7.4s7.4,3.3,7.4,7.4-.5,3-1.4,4.3c-.4.3-.7.7-1,1.1-.2.2-.3.5-.5.8-.8-.4-1.7-.6-2.6-.6h0ZM29.7,31.3c1.4,0,2.8.7,3.7,1.8.2.2.3.4.4.6-.3.3-.7.6-1,1-.6.8-1,1.7-1.1,2.6-1.1-.4-2.1-1.1-2.9-1.9l-.9-.9-.9.9c-.8.8-1.8,1.4-2.8,1.9,0-.2,0-.4,0-.5v-1.8h1.8v-.9c0-1,0-1.9-.2-2.7,0,0,.1,0,.2,0h3.7ZM14.4,44.8c1,.3,1.9.7,2.7,1.2l-.6,1.3-3.4-2.9,1.4.4ZM18.6,44.8v-2.5c1.4,0,2.7-.5,3.7-1.4v.5c0,1.7.8,3.3,2.1,4.3-1.1.4-2.1,1-3,1.7-.8-1-1.7-1.9-2.8-2.6ZM44,48.7c-.2-.1-.5-.2-.7-.3.9-.7,1.6-1.7,1.9-2.9l.5-.4c.4-.4.8-.9,1.2-1.4.4.8.9,1.4,1.5,2-1.7.6-3.2,1.7-4.3,3.1ZM50.8,47v4.5l-2.8-3.7c.9-.4,1.8-.7,2.8-.8ZM52.7,47c1,.1,1.9.4,2.8.8l-2.8,3.7v-4.5ZM55.4,41.4c0,2-1.7,3.7-3.7,3.7s-3.7-1.7-3.7-3.7v-2.1h0c1.4-.5,2.6-1.2,3.7-2.2,1.1,1,2.3,1.7,3.7,2.1v2.1ZM58.2,36.6c0,.7-.1,1.3-.3,1.9-.1.4-.4.9-.6,1.3v-.5c0-.8-.5-1.5-1.3-1.7-1.3-.4-2.4-1.1-3.4-2.1l-.9-.9-.9.9c-.8.8-1.8,1.5-2.9,1.9-.2-.9-.6-1.8-1.1-2.6-.3-.4-.6-.7-1-1,.1-.2.2-.4.4-.6.9-1.2,2.2-1.8,3.7-1.8h3.7c1.4,0,2.8.7,3.7,1.8.6.8.9,1.8.9,2.8v.7ZM25.2,16l-.4-.4,3.9-3.9.4.4c1.3,1.3,3.3,1.7,5.1,1,1.7-.7,2.8-2.4,2.8-4.3v-.5h5.5v.5c0,1.9,1.1,3.5,2.9,4.3,1.7.7,3.7.3,5-1l.4-.4,3.9,3.9-.4.4c-1.3,1.3-1.7,3.3-1,5.1.7,1.7,2.4,2.8,4.3,2.8h.5v5.5h-.5c-.6,0-1.3.1-1.9.4-.7-.3-1.5-.4-2.2-.4h-1.2c.2-.9.3-1.8.3-2.8,0-7.1-5.8-12.9-12.9-12.9s-12.9,5.8-12.9,12.9.1,1.9.3,2.8h-1.2c-.2,0-.4,0-.6,0-.3-.9-.6-1.7-.9-2.3.4-.7.6-1.4.6-2.2s-.2-1.3-.4-1.9c.7-.5,1.2-1.2,1.5-2,.7-1.7.3-3.7-1-5h0ZM8.8,36.3c-1.3-1.1-2.1-2.8-2.1-4.6v-.4c0-2.2.8-4.4,2.2-6.1,1.8-2.1,4.3-3.2,7.1-3.2h4.4c1.6,0,2.9,1.3,2.9,2.9s-1.2,2.7-2.7,2.7h-1.8c-.5,0-.9-.3-1-.6-.1-.4,0-.7.1-.9.2-.2.4-.4.7-.4h.9v-1.8h-.9c-.9,0-1.7.4-2.2,1.1-.5.7-.7,1.6-.4,2.5,0,0,0,0,0,.1-.6.4-1.2.9-1.6,1.4l-1.8,2.2c-1.3.2-2.3,1.4-2.3,2.7s.3,1.6.9,2.2l.9.9-.3,1.8-3.1-2.6ZM12.5,58.4c-1.4-2.3-2.2-4.9-2.2-7.6v-.9c0-1.5.4-3,1.2-4.3l5.6,4.6,1.5-3.1c.6.5,1.2,1.2,1.7,1.8,1.3,1.9,2,4,2,6.3v.8h-4l-2.5-5-1.6.8,2.5,5c.3.6.9,1,1.6,1h7.7v3.7h-7.7c-2.4,0-4.5-1.2-5.8-3.2h0ZM27.8,61.6v-3.7h1.8c1,0,1.8.8,1.8,1.8s-.8,1.8-1.8,1.8h-1.8ZM60,61.6h-10.1v-3.7c0-3.4-1.7-6.5-4.3-8.3.3-.3.6-.6.9-.9l5.3,7,5.3-7c1.8,1.5,3,3.8,3,6.4v6.4Z"/><circle class="cls-1" cx="39.8" cy="11" r=".9"/><path class="cls-1" d="M28.7,16.5c.2,0,.5,0,.7-.3.4-.4.4-.9,0-1.3-.2-.2-.4-.3-.7-.3s-.5,0-.7.3c-.4.4-.4.9,0,1.3.2.2.4.3.7.3Z"/><circle class="cls-1" cx="55.4" cy="26.7" r=".9"/><path class="cls-1" d="M50.8,16.5c.2,0,.5,0,.7-.3.4-.4.4-.9,0-1.3-.2-.2-.4-.3-.7-.3s-.5,0-.7.3c-.4.4-.4.9,0,1.3.2.2.4.3.7.3Z"/></svg>