<?xml version="1.0" encoding="UTF-8"?><svg id="Layer_1" xmlns="http://www.w3.org/2000/svg" width="70" height="70" viewBox="0 0 70 70"><defs><style>.cls-1{fill:#9bc8ff;}.cls-2{fill:#1583df;}</style></defs><path class="cls-2" d="M53.1,37.3c-3,0-5.4,2.4-5.4,5.4.1,6.7,9.6,7.4,10.8.8.5-3.2-2.1-6.2-5.3-6.2ZM57.2,43.1c-.7,5.2-8.2,4.7-8.3-.4.2-5.8,8.6-5.3,8.3.4Z"/><path class="cls-2" d="M61.9,45.8l2.1-.2c.6,0,1.1-.6,1.1-1.2v-3.3c0-.6-.5-1.2-1.1-1.3l-2.1-.2c-.1-.3-.3-.7-.4-1l1.3-1.6c.4-.5.4-1.2,0-1.7l-2.3-2.3c-.5-.5-1.4-.5-1.9,0V14.8c0-3.7-3-6.7-6.7-6.7H11.5c-2.1,0-3.9,1.7-3.9,3.9s1.8,3.9,3.9,3.9h2.6v41.5c0,3.7,3,6.7,6.7,6.7h40.4c2.2,0,3.9-1.8,3.9-3.9s-1.8-3.9-3.9-3.9h-2.6v-4c.5.5,1.3.6,1.9,0l2.3-2.3c.5-.5.5-1.2,0-1.7l-1.4-1.6c.1-.3.3-.7.4-1h0ZM11.5,14.6c-3.5-.1-3.5-5.2,0-5.3h33.7c-1.4,1.4-1.4,3.9,0,5.3H11.5ZM26.5,62.1c-.5.5-1.1.8-1.9.8h-3.8c-3,0-5.4-2.4-5.4-5.4V15.9h32.7c.3,0,.6-.3.6-.6s-.3-.6-.6-.6c-1.5,0-2.7-1.2-2.7-2.7,0-1.5,1.2-2.7,2.7-2.7h3.8c3,0,5.4,2.4,5.4,5.4v19.3l-.2.2c-.3-.2-.6-.3-1-.4l-.2-2.1c0-.6-.6-1.1-1.3-1.1h-3.3c-.6,0-1.2.5-1.3,1.1l-.2,2.1c-.3.1-.6.2-1,.4l-1.6-1.3c-.5-.4-1.2-.4-1.7,0l-2.3,2.3c-.4.4-.5,1.2,0,1.7l1.4,1.6c-.1.3-.3.6-.4,1l-2.1.2c-.6,0-1.1.6-1.1,1.3v3.3c0,.6.5,1.2,1.1,1.2l2.1.2c.1.3.2.7.4,1l-1.4,1.7c-.4.5-.4,1.2,0,1.7l2.3,2.3c.4.5,1.2.5,1.7.1l1.6-1.3c.3.1.6.3,1,.4l.2,2.1c0,.6.6,1.1,1.3,1.1h3.3c.6,0,1.2-.5,1.3-1.1l.2-2.1c.3-.1.7-.3,1-.4l.2.2v5H24.6c-.8,0-.8,1.3,0,1.3s1.3.3,1.8.7c1.1.9,1.1,2.9,0,3.8ZM61.2,57.6c3.5.1,3.5,5.2,0,5.3H27.5c1.4-1.4,1.4-3.9,0-5.3h33.7ZM60.2,47.2l1.6,1.9-2.3,2.3-2-1.6c-.2-.2-.5-.2-.7,0-.5.2-1,.5-1.5.6-.2,0-.4.3-.4.5l-.2,2.5h-3.2s-.3-2.5-.3-2.5c0-.2-.2-.5-.4-.5-.6-.2-1.1-.5-1.7-.7-.2,0-.4,0-.5.1l-2,1.6c-.3-.3-2-2-2.3-2.3l1.6-2c.3-.4,0-.8-.2-1.2-.3-.6-.2-1.4-.9-1.5l-2.5-.2v-3.3s2.5-.3,2.5-.3c.3,0,.5-.2.5-.5.2-.5.4-1,.6-1.5.1-.2.1-.5,0-.7l-1.6-2,2.3-2.3,2,1.6c.2.2.5.2.7,0,.5-.3,1-.5,1.5-.6.2,0,.4-.3.5-.5l.2-2.5h3.2s.3,2.5.3,2.5c0,.3.2.5.5.5.5.1,1,.4,1.5.6.5.3,1.1-.4,1.5-.7t0,0l1.2-1,2.3,2.3-1.6,2c-.2.2-.2.5,0,.7.3.5.5,1,.6,1.5,0,.2.3.4.5.5l2.5.3v3.2s-2.5.3-2.5.3c-.2,0-.5.2-.5.4-.1.4-.3.8-.5,1.2-.2.3-.3.7,0,1h0Z"/><path class="cls-1" d="M60.2,46.5c.3-.5.5-1,.6-1.5,0-.2.3-.4.5-.4l2.5-.3v-3.2s-2.5-.3-2.5-.3c-.2,0-.5-.2-.5-.5-.2-.5-.4-1-.6-1.5-.1-.2,0-.5,0-.7l1.6-2-2.3-2.3-1.2,1s0,0,0,0c-.4.3-.9,1-1.5.7-.5-.3-1-.5-1.5-.6-.2,0-.4-.3-.5-.5l-.3-2.5h-3.2s-.2,2.5-.2,2.5c0,.3-.2.5-.5.5-.5.1-1,.3-1.5.6-.2.1-.5,0-.7,0l-2-1.6-2.3,2.3,1.6,2c.2.2.2.5,0,.7-.2.5-.5,1-.6,1.5,0,.2-.3.4-.5.5l-2.5.3v3.3s2.5.2,2.5.2c.7.1.6.9.9,1.5.2.4.5.8.2,1.2l-1.6,2c.3.2,2,2,2.3,2.3l2-1.6c.2-.1.3-.2.5-.1.6.2,1.1.5,1.7.7.2,0,.4.3.4.5l.3,2.5h3.2s.2-2.5.2-2.5c0-.2.2-.5.4-.5.6-.2,1.1-.4,1.5-.6s.5,0,.7,0l2,1.6,2.3-2.3-1.6-1.9c-.1-.2-.2-.5,0-.7h0ZM58.4,43.5c-.5,4.1-5.8,6.1-8.9,3.3-3.8-3.2-1.4-9.5,3.6-9.5,3.3,0,5.9,3,5.3,6.2h0Z"/><path class="cls-2" d="M35.4,27.7h-16.5c-.4,0-.6.3-.6.6v4.7c0,.3.3.6.6.6h16.5c.3,0,.6-.3.6-.6v-4.7c0-.3-.3-.6-.6-.6ZM34.8,32.4h-15.2v-3.4h15.2v3.4Z"/><path class="cls-1" d="M19.5,29h15.2v3.4h-15.2v-3.4Z"/><path class="cls-2" d="M18.9,37.8c-.8,0-.8,1.3,0,1.3h9.2c.8,0,.8-1.3,0-1.3h-9.2Z"/><path class="cls-2" d="M36.2,42.3h-17.3c-.8,0-.8,1.3,0,1.3h17.3c.8,0,.8-1.3,0-1.3Z"/><path class="cls-2" d="M36.2,46.8h-17.3c-.8,0-.8,1.3,0,1.3h17.3c.8,0,.8-1.3,0-1.3Z"/><path class="cls-2" d="M36.2,51.3h-17.3c-.8,0-.8,1.3,0,1.3h17.3c.8,0,.8-1.3,0-1.3Z"/><path class="cls-2" d="M29.7,24.2h3.1c.3,0,.6-.3.6-.6v-5c0-.3-.3-.6-.6-.6h-3.1c-.3,0-.6.3-.6.6v5c0,.3.3.6.6.6ZM30.3,19.3h1.8v3.7h-1.8v-3.7Z"/><path class="cls-2" d="M45.2,18.6v5c0,.3.3.6.6.6h3.1c.8,0,.8-1.3,0-1.3h-2.5v-3.7h2.5c.8,0,.8-1.3,0-1.3h-3.1c-.3,0-.6.3-.6.6Z"/><path class="cls-2" d="M38.2,18c-.3,0-.6.3-.6.6v4.4h-1.8v-.5c0-.8-1.3-.8-1.3,0v1.1c0,.3.3.6.6.6h3.1c.3,0,.6-.3.6-.6v-5c0-.3-.3-.6-.6-.6Z"/><path class="cls-2" d="M43.5,19.3c.8,0,.8-1.3,0-1.3h-3.1c-.3,0-.6.3-.6.6v5c0,.3.3.6.6.6h3.1c.8,0,.8-1.3,0-1.3h-2.5v-1.2h2.5c.3,0,.6-.3.6-.6s-.3-.6-.6-.6h-2.5v-1.2h2.5Z"/><path class="cls-2" d="M51,19.3h.9v4.4c0,.3.3.6.6.6s.6-.3.6-.6v-4.4h.9c.8,0,.8-1.3,0-1.3h-3.1c-.8,0-.8,1.3,0,1.3h0Z"/><path class="cls-2" d="M19.3,23.6v-1.9h2.5c.3,0,.6-.3.6-.6v-2.5c0-.3-.3-.6-.6-.6h-3.1c-.3,0-.6.3-.6.6v5c0,.8,1.3.8,1.3,0ZM19.3,19.3h1.8v1.2h-1.8v-1.2Z"/><path class="cls-2" d="M24.3,24.2c.3,0,.6-.3.6-.6v-1.3l2,1.7c.1.1.3.2.4.2.6,0,.9-.8.4-1.1l-1.6-1.4h1.2c.3,0,.6-.3.6-.6v-2.5c0-.3-.3-.6-.6-.6h-3.1c-.3,0-.6.3-.6.6v5c0,.3.3.6.6.6h0ZM24.9,19.3h1.8v1.2h-1.8v-1.2Z"/></svg>