<?xml version="1.0" encoding="UTF-8"?><svg id="Layer_1" xmlns="http://www.w3.org/2000/svg" width="70" height="70" viewBox="0 0 70 70"><defs><style>.cls-1{fill:#1043ea;}</style></defs><path class="cls-1" d="M36.6,27h1.5c.2.5.4,1,.6,1.5l-1,1,.4.6c.4.6.9,1.2,1.5,1.8.5.5,1.1,1,1.7,1.4l.6.4,1-1c.5.3,1,.5,1.5.6v1.5l.8.2c1.5.3,3,.3,4.5,0l.8-.2v-1.5c.5-.2,1-.4,1.5-.6l1,1,.6-.4c1.3-.8,2.3-1.9,3.2-3.2l.4-.6-1-1c.3-.5.5-1,.6-1.5h1.5l.2-.8c.3-1.5.3-3,0-4.5l-.2-.8h-1.5c-.2-.5-.4-1-.6-1.5l1-1-.4-.6c-.8-1.3-1.9-2.3-3.2-3.2l-.6-.4-1,1c-.5-.3-1-.5-1.5-.6v-1.5l-.8-.2c-1.5-.3-3-.3-4.5,0l-.8.2v1.5c-.5.2-1,.4-1.5.6l-1-1-.6.4c-1.3.8-2.4,1.9-3.2,3.2l-.4.6,1,1c-.3.5-.5,1-.6,1.5h-1.5l-.2.8c-.2.7-.2,1.5-.2,2.3,0,.7,0,1.5.2,2.2l.2.8ZM38.1,22.9h1.4l.2-.7c.2-.8.5-1.6,1-2.3l.4-.6-1-1c.2-.3.5-.6.8-.9.3-.3.5-.5.8-.7l1,1,.6-.4c.7-.4,1.5-.8,2.3-1l.7-.2v-1.4c.7,0,1.5,0,2.3,0v1.4l.7.2c.8.2,1.6.5,2.3,1l.6.4,1-1c.6.5,1.1,1,1.6,1.6l-1,1,.4.6c.4.7.8,1.5,1,2.3l.2.7h1.4c0,.7,0,1.5,0,2.3h-1.4l-.2.7c-.2.8-.5,1.6-1,2.3l-.4.6,1,1c-.5.6-1,1.1-1.6,1.6l-1-1-.6.4c-.7.4-1.5.8-2.3,1l-.7.2v1.4c-.7,0-1.5,0-2.3,0v-1.4l-.7-.2c-.8-.2-1.6-.5-2.3-1l-.6-.4-1,1c-.3-.2-.6-.5-.9-.8-.3-.3-.5-.5-.7-.8l1-1-.4-.6c-.4-.7-.8-1.5-1-2.3l-.2-.7h-1.4c0-.4,0-.8,0-1.1,0-.4,0-.7,0-1.1Z"/><path class="cls-1" d="M52.7,24h1.9c0-3.9-3.2-7.1-7.1-7.1v1.9c2.9,0,5.3,2.4,5.3,5.3Z"/><path class="cls-1" d="M47.5,28.4c2.4,0,4.4-2,4.4-4.4s-2-4.4-4.4-4.4-4.4,2-4.4,4.4c0,2.4,2,4.4,4.4,4.4ZM47.5,21.5c1.4,0,2.5,1.1,2.5,2.5s-1.1,2.5-2.5,2.5-2.5-1.1-2.5-2.5c0-1.4,1.1-2.5,2.5-2.5Z"/><path class="cls-1" d="M24.7,31.5H8.1v5.6h10.3v-3.8h5l2.6,6.9,4.9,14.7h22.9l5-14.9v-3h-32l-2.1-5.6ZM16.5,35.2h-6.6v-1.9h6.6v1.9ZM27.8,39h29.1v.8l-4.4,13.3h-20.2l-.6-1.9h14v-1.9h-14.6l-2.2-6.6h10.3v-1.9h-10.9l-.4-1.1v-.8Z"/><path class="cls-1" d="M49.3,56.8c-1.7,0-3.2,1.2-3.6,2.8h-7.8c-.5-1.8-2.2-3-4.1-2.8-1.9.2-3.3,1.8-3.3,3.7s1.4,3.5,3.3,3.7c1.9.2,3.6-1,4.1-2.8h7.8c.5,1.9,2.3,3.1,4.3,2.7s3.3-2.1,3.1-4c-.2-1.9-1.8-3.4-3.7-3.4ZM34.3,62.5c-1,0-1.9-.8-1.9-1.9s.8-1.9,1.9-1.9,1.9.8,1.9,1.9-.8,1.9-1.9,1.9ZM49.3,62.5c-1,0-1.9-.8-1.9-1.9s.8-1.9,1.9-1.9,1.9.8,1.9,1.9-.8,1.9-1.9,1.9Z"/><path class="cls-1" d="M13.1,18.5h1.5c.2.5.4,1,.6,1.5l-1,1,.4.6c.4.6.9,1.2,1.5,1.8.5.5,1.1,1,1.7,1.4l.6.4,1-1c.5.3,1,.5,1.5.6v1.5l.8.2c1.5.3,3,.3,4.5,0l.8-.2v-1.5c.5-.2,1-.4,1.5-.6l1,1,.6-.4c1.3-.8,2.3-1.9,3.2-3.2l.4-.6-1-1c.3-.5.5-1,.6-1.5h1.5l.2-.8c.3-1.5.3-3,0-4.5l-.2-.7h-1.5c-.2-.5-.4-1-.6-1.5l1-1-.4-.6c-.8-1.3-1.9-2.3-3.2-3.2l-.6-.4-1,1c-.5-.3-1-.5-1.5-.6v-1.5h-.8c-1.5-.4-3-.4-4.5-.1h-.8v1.6c-.5.2-1,.4-1.5.6l-1-1-.6.4c-1.3.8-2.4,1.9-3.2,3.2l-.4.6,1,1c-.3.5-.5,1-.6,1.5h-1.5l-.2.8c-.2.7-.2,1.5-.2,2.3,0,.7,0,1.5.2,2.2l.2.8ZM14.7,14.4h1.4l.2-.7c.2-.8.5-1.6,1-2.3l.4-.6-1-1c.2-.3.5-.6.8-.9.3-.3.5-.5.8-.7l1,1,.6-.4c.7-.4,1.5-.8,2.3-1l.7-.2v-1.4c.7,0,1.5,0,2.3,0v1.4l.7.2c.8.2,1.6.5,2.3,1l.6.4,1-1c.6.5,1.1,1,1.6,1.6l-1,1,.4.6c.4.7.8,1.5,1,2.3l.2.7h1.4c0,.7,0,1.5,0,2.3h-1.4l-.2.7c-.2.8-.5,1.6-1,2.3l-.4.6,1,1c-.5.6-1,1.1-1.6,1.6l-1-1-.6.4c-.7.4-1.5.8-2.3,1l-.7.2v1.4c-.7,0-1.5,0-2.3,0v-1.4l-.7-.2c-.8-.2-1.6-.5-2.3-1l-.6-.4-1,1c-.3-.2-.6-.5-.9-.8-.3-.3-.5-.5-.7-.8l1-1-.4-.6c-.4-.7-.8-1.5-1-2.3l-.2-.7h-1.4c0-.4,0-.8,0-1.1,0-.4,0-.7,0-1.1h0Z"/><path class="cls-1" d="M24,20.8v1.9c3.9,0,7.1-3.2,7.1-7.1h-1.9c0,2.9-2.4,5.3-5.3,5.3Z"/><path class="cls-1" d="M24,19.9c2.4,0,4.4-2,4.4-4.4,0-2.4-2-4.4-4.4-4.4s-4.4,2-4.4,4.4c0,2.4,2,4.4,4.4,4.4ZM24,13c1.4,0,2.5,1.1,2.5,2.5,0,1.4-1.1,2.5-2.5,2.5s-2.5-1.1-2.5-2.5c0-1.4,1.1-2.5,2.5-2.5Z"/><path class="cls-1" d="M18.4,41.8h4.7v1.9h-4.7v-1.9Z"/><path class="cls-1" d="M12.7,41.8h2.8v1.9h-2.8v-1.9Z"/><path class="cls-1" d="M9,47.4h16.9v1.9H9v-1.9Z"/><path class="cls-1" d="M19.3,53.1h8.4v1.9h-8.4v-1.9Z"/></svg>